<?xml version="1.0" encoding="utf-8"?>
<!-- Generator: Adobe Illustrator 23.0.1, SVG Export Plug-In . SVG Version: 6.00 Build 0)  -->
<svg version="1.1" id="Laag_3" xmlns="http://www.w3.org/2000/svg" xmlns:xlink="http://www.w3.org/1999/xlink" x="0px" y="0px"
	 viewBox="0 0 343.9 326.1" style="enable-background:new 0 0 343.9 326.1;" xml:space="preserve">
<style type="text/css">
	.st0{fill:#1D1D1B;}
	.st1{display:none;}
	.st2{display:inline;fill:none;}
	.st3{display:inline;}
	.st4{fill:none;}
</style>
<g>
	<path class="st0" d="M244.8,142.3c-5.5,0-11,0-16.6-0.1c-1.1,0-1.5,0.3-1.4,1.4c0.1,2.9,0.1,5.8,0,8.7c-0.1,1.5,0.3,1.9,1.9,1.9
		c5.4-0.1,10.7-0.1,16.1-0.1c0-0.2,0-0.4,0-0.6c0-3.7,0-7.5,0-11.2L244.8,142.3z"/>
	<path class="st0" d="M117.1,90.1c-0.1,1.5,0.3,1.9,1.9,1.9c5.4-0.1,10.7-0.1,16.1-0.1c0-4,0-7.9,0-11.9c-5.1,0-10.2,0-15.4-0.1
		c-0.9,1.4-1.8,2.7-2.6,4.1C117.1,86.1,117.1,88.1,117.1,90.1z"/>
	<path class="st0" d="M209.8,67.1c-0.4-0.5-0.9-1-1.3-1.5l0,0.1C208.4,66.5,209,67.1,209.8,67.1z"/>
	<path class="st0" d="M208.4,68.9c0.1,3.1,0.1,6.1,0,9.2c0,0.8,0.6,1.4,1.4,1.4c2.3,0,4.6,0,6.9-0.1c-0.5-1.4-1-2.8-1.7-4.1
		c-1.3-2.9-3-5.5-5-7.9l-0.3,0C209,67.5,208.4,68.1,208.4,68.9z"/>
	<path class="st0" d="M208.4,81.4c0.1,3.1,0.1,6.1,0,9.2c0,0.8,0.6,1.4,1.4,1.4c3.1,0,6.2-0.1,9.3-0.1c-0.2-4.2-1-8.2-2.2-11.9
		c-2.4,0-4.7,0-7.1-0.1C209,80,208.4,80.6,208.4,81.4z"/>
	<path class="st0" d="M208.4,93.8c0,0.7,0,1.4,0,2.1c1.2,0.8,2.2,1.6,3.2,2.5h0c1.9,1.7,3.6,3.6,5,5.6l0.1,0.1
		c0.1,0.1,0.1,0.2,0.2,0.3c0.6,0,1.2,0,1.8,0c0.3-0.4,0.1-0.7-0.1-1.1l0,0c0.5-3.7,0.7-7.4,0.5-10.9c-3.1,0-6.2,0-9.4-0.1
		C209,92.4,208.4,93,208.4,93.8z"/>
	<path class="st0" d="M218,104.9c-0.2,0-0.4,0-0.6,0C217.6,105,217.8,105,218,104.9z"/>
	<path class="st0" d="M223.6,115.4c-0.1-0.5-0.2-0.9-1.2-0.7c-1,0.2-0.9,0.7-0.8,1.1c-0.1,0.3,0,0.6,0.1,0.7l0,0.3
		c1.3,0,2.6,0,3.8,0L223.6,115.4z"/>
	<path class="st0" d="M225.9,128.6c0-3.6,0-7.2,0-10.8c0-0.1,0-0.2,0-0.4c-1.3,0-2.7,0-4,0c0.6,3.7,0.6,7.7,0.1,11.9
		c1.3,0,2.6,0,4,0C225.9,129,225.9,128.8,225.9,128.6z"/>
	<path class="st0" d="M226.3,141.2c0-3.7,0-7.4,0-11.2l0-0.2c-1.5,0-3,0-4.5,0c-0.1,0.5-0.1,1-0.2,1.4c-0.5,3.4-1.4,6.9-2.6,10.5
		c2.4,0,4.9,0,7.3,0C226.3,141.6,226.3,141.4,226.3,141.2z"/>
	<path class="st0" d="M282.4,165.3c0,0.8,0.6,1.4,1.4,1.4c0.4,0,0.7,0,1.1,0V158c0-0.5-0.3-0.8-0.5-0.9l-2-1.3c0,0.1,0,0.2,0,0.3
		C282.5,159.2,282.5,162.2,282.4,165.3z"/>
	<path class="st0" d="M282.4,168.5c0,2.2,0.1,4.3,0,6.5l2-1.7c0.2-0.2,0.5-0.6,0.5-1.1v-5.1c-0.4,0-0.7,0-1.1,0
		C283,167.1,282.4,167.7,282.4,168.5z"/>
	<path class="st0" d="M283.8,191.6c0.3,0,0.6,0,0.9,0l0.2,0V188c-0.2-1-0.4-2-1.9-1.3l-0.6,0.5c0,1,0,2,0,3
		C282.4,191,283,191.6,283.8,191.6z"/>
	<path class="st0" d="M282.2,193.4c0.1,3.5,0.1,7.1,0.1,10.6c0.3,0,0.6,0,1,0c0.3,0,0.7,0,1,0c0.5-0.6,0.6-1,0.7-2.1V192
		c-0.5,0-0.9,0-1.4,0C282.5,192,282.1,192.3,282.2,193.4z"/>
	<path class="st0" d="M281.2,204.5c-5.4,0-10.7,0-16.1-0.1c-1.1,0-1.4,0.3-1.4,1.4c0.1,3.5,0.1,7,0.1,10.6v0c1.9,0,3.8,0,5.8,0
		l11.7-9.9c0-0.4,0-0.8,0-1.2C281.2,205.1,281.2,204.8,281.2,204.5z"/>
	<path class="st0" d="M245.4,227.5c0,0.8,0.6,1.4,1.4,1.4c2.7,0,5.4-0.1,8-0.1l8.1-6.8c0-1.7,0-3.4,0-5.1c-0.2,0-0.4,0-0.6,0
		c-0.1,0-0.3,0-0.4,0c-4.7,0-9.5,0-14.2-0.1l-2.3,2C245.5,221.8,245.5,224.6,245.4,227.5z"/>
	<path class="st0" d="M245.4,230.8c0,2,0,4.1,0,6.1l8.8-7.5c-2.5,0-5,0-7.4-0.1C246,229.4,245.4,230,245.4,230.8z"/>
	<path class="st0" d="M188.3,104.5c1.2,0,1.8-0.2,1.7-1.6c-0.1-3-0.1-6,0-9c0-0.5-0.1-0.8-0.2-1.1c-1.9,4-4.2,7.3-7,9.4
		c-1,0.7-1.9,1.5-2.8,2.2c0.3,0,0.6,0,0.9,0C183.4,104.4,185.8,104.4,188.3,104.5z"/>
	<path class="st0" d="M173.4,142.2c-1.1,0-1.4,0.3-1.4,1.4c0.1,3.1,0.1,6.1,0,9.2c0,1.1,0.3,1.5,1.4,1.4c1,0,2,0,3,0
		c3.2-3.9,7.1-7.9,11.8-12C183.2,142.3,178.3,142.3,173.4,142.2z"/>
	<path class="st0" d="M172,68.9c0,0.6,0,1.3,0,1.9c0.5-1.1,0.9-2.2,1.4-3.3C172.3,67.5,171.9,67.8,172,68.9z"/>
	<path class="st0" d="M171.9,15.8c0,1.3,0.4,1.5,1.6,1.5c2.5-0.1,4.9,0,7.4,0c0.7,0,1.3,0,2,0c-0.5-0.9-1.1-1.9-1.7-2.7
		c-2.4-3.6-5.4-6.6-8.9-9c-0.3,0.2-0.3,0.7-0.3,1.3C172,9.8,172,12.8,171.9,15.8z"/>
	<path class="st0" d="M118.5,166.7c5.1-0.1,10.1-0.1,15.2,0c1.1,0,1.4-0.3,1.4-1.4c-0.1-3.1-0.1-6.1,0-9.2c0-1.1-0.3-1.4-1.4-1.4
		c-2.5,0.1-5.1,0-7.6,0c-2.5,0-5.1,0.1-7.6,0c-1.1,0-1.4,0.3-1.4,1.4c0.1,3.1,0.1,6.1,0,9.2C117.1,166.4,117.4,166.7,118.5,166.7z"
		/>
	<path class="st0" d="M173.4,17.7c-1.1,0-1.5,0.2-1.5,1.4c0.1,3.1,0.1,6.1,0,9.2c0,1.1,0.2,1.5,1.4,1.5c4.6-0.1,9.2,0,13.9,0
		c-0.8-4.4-2.2-8.4-4.1-12c-0.7,0-1.4,0-2.1,0C178.5,17.7,175.9,17.8,173.4,17.7z"/>
	<path class="st0" d="M133.7,117.3c-2.5,0.1-4.9,0-7.4,0c-2.6,0-5.2,0.1-7.8,0c-1.1,0-1.4,0.3-1.4,1.4c0.1,3.1,0.1,6.1,0,9.2
		c0,1.1,0.3,1.4,1.4,1.4c5.1-0.1,10.1-0.1,15.2,0c1.1,0,1.4-0.3,1.4-1.4c-0.1-3.1-0.1-6.1,0-9.2
		C135.1,117.6,134.8,117.3,133.7,117.3z"/>
	<path class="st0" d="M135.1,131.4c0.1-1.4-0.5-1.6-1.7-1.6c-4.9,0.1-9.8,0.1-14.7,0c-1.4,0-1.6,0.5-1.6,1.7c0.1,2.9,0.1,5.8,0,8.8
		c-0.1,1.4,0.5,1.7,1.7,1.6c2.4-0.1,4.8,0,7.1,0c2.5,0,4.9-0.1,7.4,0c1.3,0,1.9-0.1,1.9-1.7C135,137.2,135,134.3,135.1,131.4z"/>
	<path class="st0" d="M173.4,30.2c-1.1,0-1.5,0.3-1.4,1.4c0.1,3.1,0.1,6.1,0,9.2c0,1.1,0.3,1.5,1.4,1.4c0.8,0,1.6,0,2.4,0
		c-0.2-0.9-0.4-1.7-0.6-2.6c1.8,0,3.5,0.2,5.1,0.8c1.1,0.4,2.2,1,3.3,1.8c1.4,0,2.9,0,4.3,0c0.3-4.3,0.1-8.3-0.5-12
		C182.6,30.2,178,30.2,173.4,30.2z"/>
	<path class="st0" d="M171.9,128c0,1.2,0.4,1.4,1.5,1.4c5.1,0,10.1-0.1,15.2,0c1.1,0,1.4-0.4,1.4-1.4c-0.1-3.1-0.1-6.1,0-9.2
		c0-1.2-0.4-1.4-1.5-1.4c-2.5,0.1-4.9,0-7.4,0c-2.5,0-5.1,0-7.6,0c-1.1,0-1.7,0.1-1.6,1.4C172,121.8,172,124.9,171.9,128z"/>
	<path class="st0" d="M118.8,179.2c2.4-0.1,4.8,0,7.1,0c2.5,0,4.9-0.1,7.4,0c1.3,0.1,1.9-0.2,1.8-1.7c-0.1-2.9-0.1-5.8,0-8.8
		c0.1-1.4-0.5-1.6-1.7-1.6c-4.9,0.1-9.8,0.1-14.7,0c-1.4,0-1.6,0.5-1.6,1.7c0.1,2.9,0.1,5.8,0,8.8C117,179,117.6,179.2,118.8,179.2z
		"/>
	<path class="st0" d="M117.1,115.6c0,1,0.3,1.3,1.3,1.3c5.1,0,10.3,0,15.4,0c1,0,1.3-0.3,1.3-1.3c-0.1-3.1-0.1-6.3,0-9.4
		c0-1-0.3-1.3-1.3-1.3c-2.5,0.1-5.1,0-7.6,0s-5.1,0-7.6,0c-1,0-1.6,0.1-1.5,1.3C117.2,109.3,117.1,112.5,117.1,115.6z"/>
	<path class="st0" d="M190,131c0-1-0.3-1.3-1.3-1.3c-5.1,0-10.3,0-15.4,0c-1,0-1.3,0.3-1.3,1.3c0.1,3.1,0.1,6.3,0,9.4
		c0,1,0.3,1.3,1.3,1.3c2.5-0.1,5.1,0,7.6,0s5.1,0,7.6,0h0.2c0.4-0.4,0.9-0.8,1.3-1.2l0-0.2C189.9,137.3,189.9,134.2,190,131z"/>
	<path class="st0" d="M190,177.7c0-1.6,0-3.3,0-4.9c-2.4,2-4.8,4.1-6.9,6.3c1.8,0,3.7,0,5.5,0C189.8,179.2,190,178.8,190,177.7z"/>
	<path class="st0" d="M173.4,116.9c5.1-0.1,10.1-0.1,15.2,0c1.1,0,1.4-0.3,1.4-1.4c-0.1-3.1-0.1-6.1,0-9.2c0-1.1-0.3-1.5-1.4-1.4
		c-2.5,0.1-4.9,0-7.4,0c-0.6,0-1.2,0-1.8,0c-2.7,2.2-5.1,4.3-7.4,6.5c0,1.4,0,2.7,0,4.1C171.9,116.6,172.3,116.9,173.4,116.9z"/>
	<path class="st0" d="M186,44.3c0.6,0.6,1.6,0.2,1.7-0.6c0-0.3,0.1-0.7,0.1-1c-1.2,0-2.4,0-3.6,0C184.7,43.1,185.4,43.7,186,44.3z"
		/>
	<path class="st0" d="M172,44c0.1,3.1,0.1,6.1,0,9.2c0,1.1,0.3,1.4,1.4,1.4c1,0,2,0,3,0c0.4-4,0.2-8-0.5-12c-0.8,0-1.6,0-2.4,0
		C172.2,42.6,171.9,43,172,44z"/>
	<path class="st0" d="M228.1,166.7c2.5-0.1,5.1,0,7.6,0c2.6,0,5.2,0,7.8,0c1,0,1.3-0.3,1.3-1.3c-0.1-3.1-0.1-6.3,0-9.4
		c0-1-0.3-1.3-1.3-1.3c-5.1,0-10.3,0-15.4,0c-1,0-1.3,0.3-1.3,1.3c0.1,3.1,0.1,6.3,0,9.4C226.8,166.4,227.1,166.7,228.1,166.7z"/>
	<path class="st0" d="M171.9,156.1c0,1.4,0.1,2.8,0.1,4.2c1.2-1.9,2.5-3.8,4-5.7c-0.8,0-1.6,0-2.5,0
		C172.4,154.7,171.9,154.9,171.9,156.1z"/>
	<path class="st0" d="M172,56.5c0.1,3.1,0.1,6.1,0,9.2c0,1.1,0.3,1.4,1.4,1.4l0.1,0c0.2-0.6,0.4-1.2,0.6-1.9
		c1.1-3.3,1.8-6.7,2.2-10.2c-1,0-1.9,0-2.9,0C172.3,55,171.9,55.4,172,56.5z"/>
	<path class="st0" d="M118.5,154.3c5.1-0.1,10.1-0.1,15.2,0c1.1,0,1.4-0.3,1.4-1.4c-0.1-3.1-0.1-6.1,0-9.2c0-1.1-0.4-1.4-1.4-1.4
		c-2.5,0.1-4.9,0-7.4,0c-2.6,0-5.2,0.1-7.8,0c-1.1,0-1.4,0.3-1.4,1.4c0,0.7,0,1.3,0,2c0.5,1.2,1.1,2.3,1.7,3.5
		c-0.6-0.2-1.1-0.5-1.6-0.8c0,1.5,0,3.1-0.1,4.6C117.1,154,117.4,154.3,118.5,154.3z"/>
	<path class="st0" d="M133.8,179.6c-5.1,0-10.3,0-15.4,0c-1,0-1.3,0.3-1.3,1.3c0.1,3.1,0.1,6.3,0,9.4c0,1,0.3,1.3,1.3,1.3
		c2.5-0.1,5.1,0,7.6,0c2.6,0,5.2,0,7.8,0c1,0,1.3-0.3,1.3-1.3c-0.1-3.1-0.1-6.3,0-9.4C135.1,179.9,134.8,179.6,133.8,179.6z"/>
	<path class="st0" d="M180.9,191.6c2.6,0,5.2,0,7.8,0c1,0,1.3-0.3,1.3-1.3c-0.1-3.1-0.1-6.3,0-9.4c0-1-0.3-1.3-1.3-1.3
		c-2,0-4,0-6.1,0c-3.6,3.8-6.5,7.9-8,12C176.7,191.6,178.8,191.6,180.9,191.6z"/>
	<path class="st0" d="M243.4,179.6c-2.5,0.1-4.9,0-7.4,0c-2.6,0-5.2,0.1-7.8,0c-1.1,0-1.4,0.3-1.4,1.4c0.1,3.1,0.1,6.1,0,9.2
		c0,1.1,0.3,1.4,1.4,1.4c5.1-0.1,10.1-0.1,15.2,0c1.1,0,1.4-0.3,1.4-1.4c-0.1-3.1-0.1-6.1,0-9.2
		C244.9,179.9,244.5,179.5,243.4,179.6z"/>
	<path class="st0" d="M118.5,204.1c5.1-0.1,10.1-0.1,15.2,0c1.1,0,1.4-0.3,1.4-1.4c-0.1-3.1-0.1-6.1,0-9.2c0-1.1-0.3-1.5-1.4-1.4
		c-2.5,0.1-4.9,0-7.4,0c-2.6,0-5.2,0.1-7.8,0c-1.1,0-1.4,0.3-1.4,1.4c0.1,3.1,0.1,6.1,0,9.2C117.1,203.8,117.4,204.1,118.5,204.1z"
		/>
	<path class="st0" d="M190,202.6c-0.1-3.1-0.1-6.1,0-9.2c0-1.1-0.3-1.4-1.4-1.4c-2.5,0.1-4.9,0-7.4,0c-2.3,0-4.5,0-6.8,0
		c-0.6,1.7-0.9,3.3-1,5c4.9,0.7,9.2,3.3,12.1,7c1,0,2,0,3,0C189.7,204.1,190,203.7,190,202.6z"/>
	<path class="st0" d="M226.8,202.6c0,1.1,0.3,1.4,1.4,1.4c5.1-0.1,10.1-0.1,15.2,0c1.1,0,1.5-0.3,1.4-1.4c-0.1-3.1-0.1-6.1,0-9.2
		c0-1.1-0.3-1.5-1.4-1.4c-2.5,0.1-5.1,0-7.6,0c-2.5,0-5.1,0-7.6,0c-1.1,0-1.5,0.3-1.4,1.4C226.9,196.5,226.9,199.6,226.8,202.6z"/>
	<path class="st0" d="M117.1,215.1c0,1.1,0.3,1.4,1.4,1.4c5.1-0.1,10.1-0.1,15.2,0c1.1,0,1.5-0.3,1.4-1.4c-0.1-3.1-0.1-6.1,0-9.2
		c0-1.1-0.3-1.5-1.4-1.4c-2.5,0.1-5.1,0-7.6,0c-2.5,0-5.1,0-7.6,0c-1.1,0-1.5,0.3-1.4,1.4C117.2,208.9,117.1,212,117.1,215.1z"/>
	<path class="st0" d="M190,215.1c-0.1-3.1-0.1-6.1,0-9.2c0-1.1-0.3-1.4-1.4-1.4c-0.9,0-1.8,0-2.7,0c2.4,3.3,3.8,7.5,3.6,11.9
		C189.9,216.2,190,215.8,190,215.1z"/>
	<path class="st0" d="M243.2,204.5c-2.4,0.1-4.8,0-7.1,0c-2.5,0-4.9,0.1-7.4,0c-1.3,0-1.9,0.1-1.9,1.7c0.1,2.9,0.1,5.8,0,8.8
		c-0.1,1.4,0.5,1.6,1.7,1.6c1.9,0,3.9,0,5.8,0l10.5-9.1c0-0.4,0-0.9,0-1.3C244.9,204.7,244.4,204.4,243.2,204.5z"/>
	<path class="st0" d="M135.1,218.4c0-1-0.2-1.5-1.4-1.5c-5.1,0.1-10.1,0.1-15.2,0c-1,0-1.5,0.2-1.5,1.4c0.1,3.1,0.1,6.1,0,9.2
		c0,1.3,0.5,1.5,1.6,1.5c2.5-0.1,4.9,0,7.4,0c2.5,0,5.1,0,7.6,0c1,0,1.5-0.2,1.5-1.4C135,224.5,135.1,221.4,135.1,218.4z"/>
	<path class="st0" d="M188.5,229c1,0,1.5-0.2,1.5-1.4c-0.1-3.1-0.1-6.1,0-9.2c0-0.7-0.1-1.2-0.6-1.4l0,0.3
		c-0.4,4.5-2.5,8.6-5.7,11.6C185.3,228.9,186.9,228.9,188.5,229z"/>
	<path class="st0" d="M226.8,218.3c0,1.5,0.1,3,0.1,4.5l6.9-5.9c-1.8,0-3.7,0-5.5,0C227.1,216.9,226.8,217.2,226.8,218.3z"/>
	<path class="st0" d="M243.5,229c1.1,0,1.4-0.3,1.4-1.4c-0.1-2.7-0.1-5.4,0-8.2l-11.2,9.6c0.6,0,1.3,0,1.9,0
		C238.2,228.9,240.8,228.9,243.5,229z"/>
	<path class="st0" d="M118.5,104.5c2.5-0.1,5.1,0,7.6,0c2.5,0,5.1-0.1,7.6,0c1.1,0,1.4-0.3,1.4-1.4c-0.1-3.1-0.1-6.1,0-9.2
		c0-1.1-0.3-1.4-1.4-1.4c-5.1,0.1-10.1,0.1-15.2,0c-1.1,0-1.4,0.3-1.4,1.4c0.1,3.1,0.1,6.1,0,9.2
		C117.1,104.2,117.4,104.5,118.5,104.5z"/>
	<path class="st0" d="M135.1,230.7c0-1-0.3-1.3-1.3-1.3c-5.1,0-10.3,0-15.4,0c-1,0-1.3,0.3-1.3,1.3c0.1,2.9,0.1,5.8,0,8.8h18
		C135.1,236.5,135.1,233.6,135.1,230.7z"/>
	<path class="st0" d="M172,239.4h18c-0.1-2.9-0.1-5.8,0-8.7c0-1.1-0.4-1.4-1.4-1.4c-1.8,0-3.6,0-5.3,0c-2.8,2.5-6.3,4.2-10.2,4.7
		c-0.3,0-0.7,0.1-1,0.1C172,235.9,172,237.7,172,239.4z"/>
	<path class="st0" d="M242.4,239.4l2.4-2c0-2.2,0-4.4,0-6.6c0-1.1-0.4-1.4-1.4-1.4c-3.4,0-6.9,0-10.3,0l-6.3,5.4c0,1.6,0,3.1,0,4.7
		H242.4z"/>
	<path class="st0" d="M228.3,179.2c2.5-0.1,5.1,0,7.6,0c2.5,0,5.1-0.1,7.6,0c1.1,0,1.4-0.3,1.4-1.4c-0.1-3.1-0.1-6.1,0-9.2
		c0-1.1-0.3-1.4-1.4-1.4c-5.1,0.1-10.1,0.1-15.2,0c-1.1,0-1.4,0.3-1.4,1.4c0.1,3.1,0.1,6.1,0,9.2
		C226.8,178.9,227.2,179.2,228.3,179.2z"/>
	<path class="st0" d="M170,29.8c1.2,0,1.6-0.2,1.6-1.5c-0.1-3-0.1-6,0-9c0-1.2-0.2-1.6-1.5-1.6c-2.4,0-4.9,0.1-7.3,0.1
		c0.4,4.1,0.2,8.2-0.5,12c0.1,0,0.2,0,0.3,0C165.1,29.7,167.5,29.7,170,29.8z"/>
	<path class="st0" d="M162.8,42.2c2.5,0,4.9-0.1,7.4,0c1.1,0,1.4-0.3,1.4-1.4c-0.1-3.1-0.1-6.1,0-9.2c0-1.1-0.3-1.4-1.4-1.4
		c-2.6,0-5.3,0-7.9,0c-0.2,0.9-0.4,1.9-0.6,2.8c-0.6,2.4-3.1,5.5-6.6,9.2c0.1,0,0.3,0,0.4,0C157.9,42.1,160.3,42.2,162.8,42.2z"/>
	<path class="st0" d="M154,53.2c0,1.1,0.3,1.4,1.4,1.4c4.9-0.1,9.8-0.1,14.7,0c1.1,0,1.4-0.3,1.4-1.4c-0.1-3.1-0.1-6.1,0-9.2
		c0-1.1-0.3-1.4-1.4-1.4c-2.4,0.1-4.8,0-7.1,0c-2.5,0-5.1,0.1-7.6,0c-0.4,0-0.7,0-0.9,0.1c-0.1,0.1-0.2,0.2-0.3,0.4
		c-0.1,0.2-0.1,0.5-0.1,0.9C154,47.1,154,50.2,154,53.2z"/>
	<path class="st0" d="M155.3,67.1c5,0,10,0,15,0c1,0,1.3-0.3,1.3-1.3c-0.1-3.1-0.1-6.3,0-9.4c0-1-0.3-1.3-1.3-1.3
		c-2.5,0.1-4.9,0-7.4,0c-2.5,0-5.1,0-7.6,0c-1,0-1.3,0.3-1.3,1.3c0.1,3.1,0.1,6.3,0,9.4C154,66.8,154.3,67.1,155.3,67.1z"/>
	<path class="st0" d="M206.2,67.1c1.2,0,1.8-0.1,1.7-1.6c0-0.1,0-0.3,0-0.4c-3.2-3.2-7-6-11.4-8c-0.7-0.3-1.5,0.2-1.4,1
		c0.4,2.6,0.5,5.7,0.5,8.9c1.2,0,2.3,0,3.5,0C201.5,67.1,203.9,67,206.2,67.1z"/>
	<path class="st0" d="M170.1,67.5c-2.5,0.1-4.9,0-7.4,0c-2.5,0-4.9,0.1-7.4,0c-1.1,0-1.4,0.3-1.4,1.4c0.1,3.1,0.1,6.1,0,9.2
		c0,1.1,0.3,1.4,1.4,1.4c3.9,0,7.8,0,11.7,0c1.6-2.4,3.1-5,4.4-7.7c0-1,0-1.9,0-2.9C171.6,67.8,171.2,67.5,170.1,67.5z"/>
	<path class="st0" d="M206.6,79.6c1.1,0,1.4-0.3,1.4-1.4c-0.1-3.1-0.1-6.1,0-9.2c0-1.1-0.3-1.5-1.4-1.4c-2.4,0.1-4.8,0-7.1,0
		c-1.3,0-2.6,0-3.8,0c-0.1,3.9-0.6,8-1.5,12C198.3,79.5,202.4,79.5,206.6,79.6z"/>
	<path class="st0" d="M116.7,90.5c-0.1-1.9-0.1-3.7-0.1-5.6c-1.3,2.3-2.4,4.7-3.3,7c0.6,0,1.2,0,1.8,0
		C116.3,92.1,116.7,91.8,116.7,90.5z"/>
	<path class="st0" d="M154,81.4c0.1,3.5,0.1,7.1,0.1,10.6c0.4,0,0.9,0,1.3,0c0.9-0.9,1.9-1.8,2.9-2.6c3-2.5,5.9-5.7,8.5-9.4
		c-3.8,0-7.6,0-11.4,0C154.3,80,153.9,80.3,154,81.4z"/>
	<path class="st0" d="M191.8,92c2.5-0.1,4.9,0,7.4,0s4.9-0.1,7.4,0c1.1,0,1.4-0.3,1.4-1.4c-0.1-3.1-0.1-6.1,0-9.2
		c0-1.1-0.3-1.4-1.4-1.4c-4.2,0-8.4,0-12.5,0c-0.3,1.5-0.7,2.9-1.1,4.4v0c-0.7,2.4-1.5,4.8-2.5,7C190.6,91.9,191,92,191.8,92z"/>
	<path class="st0" d="M115.1,104.5c1.1,0,1.7-0.1,1.6-1.4c-0.1-3.1-0.1-6.1,0-9.2c0-1.2-0.4-1.4-1.5-1.4c-0.7,0-1.4,0-2.1,0
		c-0.7,2-1.3,4-1.7,6.1c-0.4,2-0.7,4-0.9,5.9C112,104.4,113.5,104.4,115.1,104.5z"/>
	<path class="st0" d="M136.9,92.4c-1.1,0-1.5,0.3-1.4,1.4c0.1,2.9,0.1,5.8,0,8.7c-0.1,1.5,0.3,1.9,1.9,1.9c2.7-0.1,5.4-0.1,8.1-0.1
		c0.3-0.5,0.7-1.1,1-1.6c2-3.1,4.2-5.9,6.6-8.5c0-0.6,0-1.2,0-1.9C147.7,92.5,142.3,92.5,136.9,92.4z"/>
	<path class="st0" d="M206.6,92.4c-4.9,0.1-9.8,0.1-14.7,0c-1.1,0-1.4,0.3-1.4,1.4c0.1,3.1,0.1,6.1,0,9.2c0,1.1,0.3,1.5,1.4,1.4
		c2.4-0.1,4.8,0,7.1,0c2.5,0,5.1-0.1,7.6,0c0.1,0,0.2,0,0.3,0c0-3.5-0.2-6.9-0.5-9.9c0.6,0.3,1.1,0.7,1.7,1c0-0.6,0-1.2,0-1.8
		C208,92.7,207.7,92.4,206.6,92.4z"/>
	<path class="st0" d="M116.7,115.5c-0.1-3.1-0.1-6.1,0-9.2c0-1.1-0.3-1.5-1.4-1.4c-1.6,0.1-3.2,0-4.8,0c-0.5,4.2-0.7,8.2-0.5,12
		c1.8,0,3.6,0,5.3,0C116.4,116.9,116.7,116.6,116.7,115.5z"/>
	<path class="st0" d="M135.5,106.3c0.1,3.1,0.1,6.1,0,9.2c0,1.1,0.3,1.5,1.4,1.4c0.8,0,1.7,0,2.5,0c1.6-4.2,3.5-8.2,5.8-12
		c-2.8,0-5.5,0-8.3,0C135.8,104.9,135.5,105.2,135.5,106.3z"/>
	<path class="st0" d="M171.5,115.5c0-1.2,0-2.4,0-3.6c-1.7,1.7-3.3,3.3-4.8,5c1.2,0,2.3,0,3.5,0
		C171.3,116.9,171.6,116.6,171.5,115.5z"/>
	<path class="st0" d="M199.4,104.9c-2.5,0-4.9,0-7.4,0c-1.1,0-1.7,0.1-1.6,1.4c0.1,3.1,0.1,6.1,0,9.2c0,1.1,0.4,1.4,1.4,1.4
		c4.7,0,9.3-0.1,14,0c0.7-3.9,1-8,1-12c-0.1,0-0.2,0-0.3,0C204.2,104.9,201.8,104.9,199.4,104.9z"/>
	<path class="st0" d="M116.7,127.9c-0.1-3.1-0.1-6.1,0-9.2c0-1.1-0.3-1.4-1.4-1.4c-1.8,0.1-3.6,0-5.3,0c0.2,3.6,0.6,7.1,1.2,10.4
		c0.1,0.5,0.2,1.1,0.4,1.6c1.3,0,2.5,0,3.8,0C116.4,129.4,116.7,129,116.7,127.9z"/>
	<path class="st0" d="M135.5,118.7c0.1,3.1,0.1,6.1,0,9.2c0,0.7,0.1,1.1,0.5,1.3c0.7-4,1.8-8,3.2-11.9c-0.8,0-1.5,0-2.3,0
		C135.9,117.3,135.5,117.6,135.5,118.7z"/>
	<path class="st0" d="M170.1,129.4c1.1,0,1.5-0.3,1.4-1.4c-0.1-3.1-0.1-6.1,0-9.2c0-1.1-0.3-1.5-1.4-1.4c-1.3,0-2.6,0-3.9,0
		c-3.5,4-6.4,8-8.7,12C161.7,129.3,165.9,129.3,170.1,129.4z"/>
	<path class="st0" d="M192,117.3c-1.4,0-1.6,0.5-1.6,1.7c0.1,2.8,0.1,5.7,0,8.5c-0.1,1.6,0.6,1.9,2,1.8c2.2-0.1,4.5,0,6.7,0
		c0.9,0,1.9,0,2.8,0c1.7-3.1,2.9-6.8,3.7-10.9c0.1-0.4,0.1-0.8,0.2-1.1C201.1,117.4,196.6,117.4,192,117.3z"/>
	<path class="st0" d="M116.7,140.4c-0.1-3.1-0.1-6.1,0-9.2c0-1.1-0.3-1.5-1.4-1.4c-1.2,0-2.4,0-3.7,0c1,4.2,2.3,8.2,3.8,12
		C116.4,141.8,116.7,141.4,116.7,140.4z"/>
	<path class="st0" d="M99.1,140.4c0,1.1,0.3,1.4,1.4,1.4c2.7,0,5.5,0,8.2,0c-3-3-6-6.6-8.9-10.7c-0.2-0.2-0.4-0.3-0.7-0.4
		c0,0.1,0,0.3,0,0.4C99.2,134.2,99.2,137.3,99.1,140.4z"/>
	<path class="st0" d="M153.1,140.2c0-0.5,0-0.9,0-1.4c-0.4,1-0.7,2-1,3C152.8,141.7,153.2,141.3,153.1,140.2z"/>
	<path class="st0" d="M135.5,132.8c0.1-0.9,0.2-1.9,0.4-2.8c-0.3,0.2-0.4,0.7-0.4,1.4C135.5,131.8,135.5,132.3,135.5,132.8z"/>
	<path class="st0" d="M155.5,141.8c2.4-0.1,4.8,0,7.1,0c2.4,0,4.8-0.1,7.1,0c1.2,0,1.8-0.1,1.7-1.6c-0.1-3-0.1-6,0-9
		c0-1.3-0.4-1.5-1.6-1.5c-4.2,0.1-8.5,0.1-12.7,0c-1.2,2.2-2.3,4.4-3.2,6.6c0,1.3,0,2.6-0.1,3.9
		C153.9,141.6,154.4,141.9,155.5,141.8z"/>
	<path class="st0" d="M191.8,129.8c-1.2,0-1.4,0.4-1.4,1.5c0.1,3,0.1,6.1,0,9.1c2.2-1.8,4.5-3.7,7-5.6c1.6-1.2,3-2.9,4.1-4.9
		C198.3,129.8,195,129.8,191.8,129.8z"/>
	<path class="st0" d="M78.3,154.3c1,0,1.5-0.2,1.5-1.4c-0.1-3.1-0.1-6.1,0-9.2c0-0.1,0-0.2,0-0.2l-16.1,10.8
		C68.6,154.2,73.4,154.2,78.3,154.3z"/>
	<path class="st0" d="M80.7,152.9c0,1.1,0.4,1.4,1.4,1.4c4.9-0.1,9.8-0.1,14.7,0c1.1,0,1.4-0.3,1.4-1.4c-0.1-3.1-0.1-6.1,0-9.2
		c0-1.1-0.4-1.4-1.4-1.4c-2.4,0.1-4.8,0-7.1,0c-2.5,0-5.1,0.1-7.6,0c-0.2,0-0.4,0-0.5,0l-0.8,0.5c-0.1,0.2-0.1,0.5-0.1,0.9
		C80.7,146.7,80.7,149.8,80.7,152.9z"/>
	<path class="st0" d="M115.6,142.2c0.3,0.8,0.7,1.7,1.1,2.5c0-0.4,0-0.7,0-1.1C116.7,142.6,116.4,142.3,115.6,142.2z"/>
	<path class="st0" d="M100.5,142.2c-1.1,0-1.4,0.3-1.4,1.4c0.1,3.1,0.1,6.1,0,9.2c0,1.1,0.3,1.4,1.4,1.4c4.9-0.1,9.8-0.1,14.7,0
		c1.1,0,1.4-0.3,1.4-1.4c0-1.6-0.1-3.2,0-4.8c-2.2-1.2-4.3-2.8-6.4-4.8c-0.4-0.3-0.7-0.7-1.1-1c-0.4,0-0.7,0-1.1,0
		C105.6,142.2,103,142.3,100.5,142.2z"/>
	<path class="st0" d="M153.1,152.8c-0.1-3.1-0.1-6.1,0-9.2c0-1-0.2-1.4-1.1-1.4c-1.1,3.9-1.8,7.9-2.1,12c0.6,0,1.2,0,1.8,0
		C152.8,154.3,153.1,154,153.1,152.8z"/>
	<path class="st0" d="M135.5,152.8c0,1.1,0.3,1.4,1.4,1.4c0.2,0,0.3,0,0.5,0c-0.9-2.7-1.5-5.5-1.9-8.4
		C135.6,148.2,135.6,150.5,135.5,152.8z"/>
	<path class="st0" d="M154,152.7c0,1.2,0.2,1.6,1.5,1.6c4.8-0.1,9.7-0.1,14.5,0c1.2,0,1.6-0.2,1.6-1.5c-0.1-3-0.1-6,0-9
		c0.1-1.4-0.5-1.6-1.7-1.6c-2.3,0.1-4.6,0-6.9,0c-2.5,0-4.9,0.1-7.4,0c-1.2,0-1.6,0.2-1.6,1.5C154.1,146.7,154,149.7,154,152.7z"/>
	<path class="st0" d="M224.8,154.3c1.1,0,1.7-0.1,1.6-1.4c-0.1-3.1-0.1-6.1,0-9.2c0-1.2-0.4-1.4-1.5-1.4c-2,0-4.1,0-6.1,0
		c-0.7,2.2-1.6,4.4-2.6,6.6c-0.8,1.8-2,3.6-3.5,5.4c1.6,0,3.1,0,4.7,0C219.9,154.2,222.3,154.2,224.8,154.3z"/>
	<path class="st0" d="M263.7,152.8c0,1.1,0.3,1.5,1.4,1.4c2.5-0.1,4.9,0,7.4,0s4.9,0,7.4,0c0.2,0,0.3,0,0.4,0l-16.5-11.3
		c0,0.2-0.1,0.4-0.1,0.7C263.8,146.7,263.8,149.8,263.7,152.8z"/>
	<path class="st0" d="M61.8,165.3c-0.1-3.1-0.1-6.1,0-9.2c0-0.2,0-0.4,0-0.5l-4.4,3c-0.2,0.1-0.4,0.6-0.4,0.8l0,7.4
		c1.1,0,2.3,0,3.4,0C61.5,166.7,61.8,166.4,61.8,165.3z"/>
	<path class="st0" d="M62.2,165.3c0,1.1,0.3,1.4,1.4,1.4c4.9-0.1,9.8-0.1,14.7,0c1.1,0,1.4-0.3,1.4-1.4c-0.1-3.1-0.1-6.1,0-9.2
		c0-1.1-0.3-1.5-1.4-1.4c-2.4,0.1-4.8,0-7.1,0c-2.5,0-5.1,0.1-7.6,0c-0.2,0-0.4,0-0.6,0l-0.7,0.5c-0.1,0.2-0.1,0.5-0.1,0.9
		C62.3,159.2,62.3,162.2,62.2,165.3z"/>
	<path class="st0" d="M82.3,166.7c2.4-0.1,4.8,0,7.1,0c2.5,0,4.9,0,7.4,0c1.1,0,1.5-0.2,1.5-1.4c-0.1-3.1-0.1-6.1,0-9.2
		c0-1.1-0.2-1.5-1.4-1.5c-4.9,0.1-9.8,0.1-14.7,0c-1.1,0-1.5,0.2-1.5,1.4c0.1,3.1,0.1,6.1,0,9.2C80.6,166.6,81.2,166.7,82.3,166.7z"
		/>
	<path class="st0" d="M99.1,165.1c-0.1,1.4,0.5,1.6,1.7,1.6c4.8-0.1,9.5-0.1,14.3,0c1.4,0,1.6-0.5,1.6-1.7c-0.1-2.9-0.1-5.8,0-8.8
		c0.1-1.4-0.5-1.6-1.7-1.6c-2.3,0.1-4.6,0-6.9,0c-2.4,0-4.8,0.1-7.1,0c-1.3-0.1-1.9,0.2-1.8,1.7C99.2,159.3,99.2,162.2,99.1,165.1z"
		/>
	<path class="st0" d="M135.5,156.2c0.1,3,0.1,6,0,9c0,1.3,0.4,1.5,1.6,1.5c2.4-0.1,4.8,0,7.1,0l0.2,0c-0.1-0.1-0.2-0.2-0.3-0.3
		c-2.9-3.5-5.1-7.5-6.5-11.7c-0.2,0-0.4,0-0.6,0C135.8,154.6,135.5,155.1,135.5,156.2z"/>
	<path class="st0" d="M153.1,165.1c-0.1-3-0.1-6,0-9c0-1.3-0.4-1.5-1.6-1.5c-0.6,0-1.1,0-1.7,0c-0.3,3.9-0.1,7.9,0.3,12
		c0.4,0,0.8,0,1.3,0C152.6,166.7,153.2,166.6,153.1,165.1z"/>
	<path class="st0" d="M170.1,154.7c-4.9,0.1-9.8,0.1-14.7,0c-1.1,0-1.4,0.3-1.4,1.4c0.1,3.1,0.1,6.1,0,9.2c0,1.1,0.3,1.4,1.4,1.4
		c2.5-0.1,4.9,0,7.4,0c2,0,4,0,6,0c0.2-0.6,0.5-1.1,0.7-1.7c0.6-1.3,1.3-2.6,2-3.8c0-1.7,0-3.4,0-5.1
		C171.6,154.9,171.2,154.7,170.1,154.7z"/>
	<path class="st0" d="M206.6,166.7c1.1,0,1.4-0.3,1.4-1.4c0-2.1-0.1-4.2,0-6.3c-3,2.6-6.4,5.1-9.9,7.7c0.3,0,0.6,0,0.9,0
		C201.5,166.7,204,166.6,206.6,166.7z"/>
	<path class="st0" d="M208.8,165.2c0,1.2,0.3,1.6,1.5,1.6c2.4-0.1,4.8,0,7.1,0c2.5,0,4.9-0.1,7.4,0c1.2,0,1.6-0.3,1.6-1.5
		c-0.1-3-0.1-6,0-9c0-1.2-0.3-1.6-1.5-1.6c-4.2,0.1-8.3,0.1-12.5,0c-1.1,1.2-2.2,2.4-3.5,3.5C208.9,160.5,208.9,162.8,208.8,165.2z"
		/>
	<path class="st0" d="M247,166.7c2.3-0.1,4.6,0,6.9,0c2.4,0,4.8-0.1,7.1,0c1.3,0,1.9-0.1,1.9-1.7c-0.1-2.9-0.1-5.8,0-8.8
		c0.1-1.4-0.5-1.6-1.7-1.6c-4.8,0.1-9.5,0.1-14.3,0c-1.4,0-1.6,0.5-1.6,1.7c0.1,2.9,0.1,5.8,0,8.8
		C245.2,166.5,245.7,166.8,247,166.7z"/>
	<path class="st0" d="M265.4,166.7c2.3-0.1,4.6,0,6.9,0c2.4,0,4.8-0.1,7.1,0c1.3,0.1,1.9-0.2,1.8-1.7c-0.1-2.9-0.1-5.8,0-8.8
		c0.1-1.4-0.5-1.6-1.7-1.6c-4.8,0.1-9.5,0.1-14.3,0c-1.4,0-1.6,0.5-1.6,1.7c0.1,2.9,0.1,5.8,0,8.8
		C263.6,166.5,264.2,166.8,265.4,166.7z"/>
	<path class="st0" d="M89.3,141.8c2.5,0,5.1,0,7.6,0c1,0,1.3-0.3,1.3-1.3c-0.1-3.1-0.1-6.3,0-9.4l0,0l-16,10.8
		C84.6,141.7,86.9,141.8,89.3,141.8z"/>
	<path class="st0" d="M61.8,177.7c-0.1-3.1-0.1-6.1,0-9.2c0-1.1-0.3-1.5-1.4-1.4c-1.1,0-2.3,0-3.4,0l0.1,12c1.1,0,2.2,0,3.3,0
		C61.5,179.2,61.8,178.9,61.8,177.7z"/>
	<path class="st0" d="M62.2,177.7c0,1.1,0.3,1.4,1.4,1.4c4.9-0.1,9.8-0.1,14.7,0c1.1,0,1.5-0.3,1.4-1.4c-0.1-3.1-0.1-6.1,0-9.2
		c0-1.1-0.3-1.5-1.4-1.4c-2.5,0.1-4.9,0-7.4,0c-2.5,0-4.9,0-7.4,0c-1.1,0-1.5,0.3-1.4,1.4C62.3,171.6,62.3,174.7,62.2,177.7z"/>
	<path class="st0" d="M82,179.2c2.5-0.1,4.9,0,7.4,0c2.5,0,5.1,0,7.6,0c1,0,1.3-0.3,1.3-1.3c-0.1-3.1-0.1-6.3,0-9.4
		c0-1-0.3-1.3-1.3-1.3c-5,0-10,0-15,0c-1,0-1.3,0.3-1.3,1.3c0.1,3.1,0.1,6.3,0,9.4C80.6,178.9,81,179.2,82,179.2z"/>
	<path class="st0" d="M100.5,179.2c4.9-0.1,9.8-0.1,14.7,0c1.1,0,1.5-0.3,1.4-1.4c-0.1-3.1-0.1-6.1,0-9.2c0-1.1-0.3-1.5-1.4-1.4
		c-2.5,0.1-4.9,0-7.4,0s-4.9,0.1-7.4,0c-1.1,0-1.5,0.3-1.4,1.4c0.1,3.1,0.1,6.1,0,9.2C99.1,178.8,99.4,179.2,100.5,179.2z"/>
	<path class="st0" d="M137,167.1c-1,0-1.5,0.2-1.5,1.4c0.1,3.1,0.1,6.1,0,9.2c0,1,0.2,1.5,1.4,1.5c4.9-0.1,9.8-0.1,14.7,0
		c1,0,1.5-0.2,1.5-1.4c-0.1-3.1-0.1-6.1,0-9.2c0-1.3-0.5-1.5-1.6-1.5c-0.4,0-0.9,0-1.3,0c0.2,1.9,0.5,3.7,0.8,5.6
		c-2.3-1.7-4.4-3.6-6.1-5.6c-0.1,0-0.3,0-0.4,0C141.9,167.1,139.4,167.2,137,167.1z"/>
	<path class="st0" d="M155.3,167.1c-1,0-1.3,0.3-1.3,1.3c0.1,3.1,0.1,6.3,0,9.4c0,1,0.3,1.3,1.3,1.3c2.5-0.1,4.9,0,7.4,0
		c1,0,2.1,0,3.1,0c0.4-4.2,1.3-8.2,2.8-12C164.1,167.2,159.7,167.2,155.3,167.1z"/>
	<path class="st0" d="M191.8,179.2c2.5-0.1,4.9,0,7.4,0s4.9-0.1,7.4,0c1.1,0,1.4-0.3,1.4-1.4c-0.1-3.1-0.1-6.1,0-9.2
		c0-1.1-0.3-1.4-1.4-1.4c-3,0-6.1,0-9.1,0c-0.4,0.3-0.7,0.5-1.1,0.8c-2,1.4-3.9,2.9-5.9,4.5c0,1.8,0,3.5,0,5.3
		C190.4,178.9,190.7,179.2,191.8,179.2z"/>
	<path class="st0" d="M210.4,179.2c2.5-0.1,4.9,0,7.4,0c2.3,0,4.6-0.1,6.9,0c1.2,0,1.8-0.2,1.7-1.6c-0.1-3-0.1-6,0-9
		c0-1.3-0.5-1.5-1.6-1.5c-4.8,0.1-9.7,0.1-14.5,0c-1.3,0-1.5,0.5-1.5,1.6c0.1,3,0.1,6,0,9C208.8,179,209.3,179.2,210.4,179.2z"/>
	<path class="st0" d="M261.2,167.1c-2.4,0.1-4.8,0-7.1,0c-2.5,0-4.9,0-7.4,0c-1.1,0-1.5,0.2-1.5,1.4c0.1,3.1,0.1,6.1,0,9.2
		c0,1.1,0.2,1.5,1.4,1.5c4.9-0.1,9.8-0.1,14.7,0c1.1,0,1.5-0.2,1.5-1.4c-0.1-3.1-0.1-6.1,0-9.2C262.9,167.2,262.3,167.1,261.2,167.1
		z"/>
	<path class="st0" d="M281.3,168.7c0.1-1.4-0.5-1.6-1.7-1.6c-4.8,0.1-9.5,0.1-14.3,0c-1.4,0-1.6,0.5-1.6,1.7c0.1,2.9,0.1,5.8,0,8.8
		c-0.1,1.4,0.5,1.6,1.7,1.6c2.3-0.1,4.6,0,6.9,0c1.8,0,3.6,0,5.4,0l3.5-3C281.2,173.6,281.2,171.2,281.3,168.7z"/>
	<path class="st0" d="M61.8,190c-0.1-3-0.1-6,0-9c0-1.3-0.5-1.5-1.6-1.5c-1.1,0-2.1,0-3.2,0l0.1,12c1,0,2,0,3,0
		C61.3,191.7,61.9,191.4,61.8,190z"/>
	<path class="st0" d="M79.8,181c0-1-0.2-1.5-1.4-1.5c-4.9,0.1-9.8,0.1-14.7,0c-1,0-1.5,0.2-1.5,1.4c0.1,3.1,0.1,6.1,0,9.2
		c0,1.3,0.5,1.5,1.6,1.5c2.4-0.1,4.8,0,7.1,0c2.5,0,4.9,0,7.4,0c1,0,1.5-0.2,1.5-1.4C79.7,187.2,79.7,184.1,79.8,181z"/>
	<path class="st0" d="M82.1,191.6c2.5-0.1,4.9,0,7.4,0c2.5,0,4.9,0,7.4,0c1.1,0,1.5-0.3,1.4-1.4c-0.1-3.1-0.1-6.1,0-9.2
		c0-1.1-0.3-1.4-1.4-1.4c-4.9,0.1-9.8,0.1-14.7,0c-1.1,0-1.5,0.3-1.4,1.4c0.1,3.1,0.1,6.1,0,9.2C80.6,191.3,80.9,191.6,82.1,191.6z"
		/>
	<path class="st0" d="M99.1,189.9c0,1.2,0.2,1.7,1.6,1.7c4.8-0.1,9.5-0.1,14.3,0c1.2,0,1.8-0.2,1.7-1.6c-0.1-2.9-0.1-5.8,0-8.8
		c0.1-1.5-0.5-1.8-1.8-1.7c-2.3,0.1-4.6,0-6.9,0c-2.4,0-4.8,0.1-7.1,0c-1.2,0-1.8,0.2-1.7,1.6C99.2,184.1,99.2,187,99.1,189.9z"/>
	<path class="st0" d="M137.1,191.6c2.4-0.1,4.8,0,7.1,0c2.5,0,4.9,0,7.4,0c1.1,0,1.5-0.2,1.5-1.4c-0.1-3.1-0.1-6.1,0-9.2
		c0-1.1-0.2-1.5-1.4-1.4c-4.9,0.1-9.8,0.1-14.7,0c-1.1,0-1.5,0.2-1.5,1.4c0.1,3.1,0.1,6.1,0,9.2
		C135.5,191.5,136.1,191.6,137.1,191.6z"/>
	<path class="st0" d="M154,180.9c0.1,3.1,0.1,6.3,0,9.4c0,1,0.3,1.3,1.3,1.3c2.5-0.1,4.9,0,7.4,0c1.1,0,2.3,0,3.4,0
		c-0.5-4.2-0.7-8.2-0.4-12c-3.5,0-6.9,0-10.4,0C154.3,179.6,154,179.9,154,180.9z"/>
	<path class="st0" d="M190.4,190.2c0,1.1,0.3,1.4,1.4,1.4c4.9-0.1,9.8-0.1,14.7,0c1.1,0,1.5-0.3,1.4-1.4c-0.1-3.1-0.1-6.1,0-9.2
		c0-1.1-0.3-1.5-1.4-1.4c-2.5,0.1-4.9,0-7.4,0c-2.5,0-4.9,0.1-7.4,0c-1.1,0-1.5,0.3-1.4,1.4C190.5,184,190.5,187.1,190.4,190.2z"/>
	<path class="st0" d="M210.3,191.6c2.5-0.1,4.9,0,7.4,0c2.5,0,4.9-0.1,7.4,0c1.1,0,1.4-0.3,1.4-1.4c-0.1-3.1-0.1-6.1,0-9.2
		c0-1.1-0.3-1.4-1.4-1.4c-4.9,0.1-9.8,0.1-14.7,0c-1.1,0-1.4,0.3-1.4,1.4c0.1,3.1,0.1,6.1,0,9.2
		C208.8,191.3,209.2,191.6,210.3,191.6z"/>
	<path class="st0" d="M261.4,179.6c-2.5,0.1-4.9,0-7.4,0c-2.5,0-4.9,0.1-7.4,0c-1.1,0-1.4,0.3-1.4,1.4c0.1,3.1,0.1,6.1,0,9.2
		c0,1.1,0.3,1.4,1.4,1.4c4.9-0.1,9.8-0.1,14.7,0c1.1,0,1.4-0.3,1.4-1.4c-0.1-3.1-0.1-6.1,0-9.2C262.9,179.9,262.5,179.5,261.4,179.6
		z"/>
	<path class="st0" d="M265.1,179.6c-1.1,0-1.4,0.3-1.4,1.4c0.1,3.1,0.1,6.1,0,9.2c0,0.4,0,0.7,0.1,0.9l13.3-11.5c-1.6,0-3.1,0-4.7,0
		C270,179.6,267.6,179.6,265.1,179.6z"/>
	<path class="st0" d="M281.3,190.2c0-0.7,0-1.3,0-2l-4,3.4c0.9,0,1.7,0,2.6,0C281,191.6,281.3,191.3,281.3,190.2z"/>
	<path class="st0" d="M61.8,202.8c-0.1-3.1-0.1-6.3,0-9.4c0-1-0.3-1.3-1.3-1.3c-1.1,0-2.3,0-3.4,0l0.1,10.8c0,0.2,0.2,0.7,0.4,0.8
		l0.5,0.4c0.8,0,1.6,0,2.4,0C61.5,204.1,61.8,203.8,61.8,202.8z"/>
	<path class="st0" d="M78.4,192c-2.4,0.1-4.8,0-7.1,0c-2.5,0-5.1,0.1-7.6,0c-1.1,0-1.4,0.3-1.4,1.4c0.1,3.1,0.1,6.1,0,9.2
		c0,1.1,0.3,1.4,1.4,1.4c4.9-0.1,9.8-0.1,14.7,0c1.1,0,1.4-0.3,1.4-1.4c-0.1-3.1-0.1-6.1,0-9.2C79.8,192.3,79.5,192,78.4,192z"/>
	<path class="st0" d="M98.2,193.6c0.1-1.4-0.5-1.6-1.7-1.6c-4.8,0.1-9.5,0.1-14.3,0c-1.4,0-1.6,0.5-1.6,1.7c0.1,2.9,0.1,5.8,0,8.8
		c-0.1,1.4,0.5,1.6,1.7,1.6c2.3-0.1,4.6,0,6.9,0c2.4,0,4.8-0.1,7.1,0c1.3,0.1,1.9-0.2,1.8-1.7C98.1,199.4,98.1,196.5,98.2,193.6z"/>
	<path class="st0" d="M115.3,192c-2.5,0.1-4.9,0-7.4,0c-2.5,0-4.9,0.1-7.4,0c-1.1,0-1.4,0.3-1.4,1.4c0.1,3.1,0.1,6.1,0,9.2
		c0,1.1,0.3,1.4,1.4,1.4c4.9-0.1,9.8-0.1,14.7,0c1.1,0,1.4-0.3,1.4-1.4c-0.1-3.1-0.1-6.1,0-9.2C116.7,192.3,116.4,192,115.3,192z"/>
	<path class="st0" d="M153.1,193.6c0-1.2-0.3-1.6-1.5-1.6c-2.4,0.1-4.8,0-7.1,0c-2.5,0-4.9,0.1-7.4,0c-1.2,0-1.6,0.3-1.6,1.5
		c0.1,3,0.1,6,0,9c0,1.2,0.3,1.6,1.5,1.6c4.8-0.1,9.7-0.1,14.5,0c1.2,0,1.6-0.3,1.6-1.5C153,199.6,153,196.6,153.1,193.6z"/>
	<path class="st0" d="M155.4,192c-1.1,0-1.4,0.3-1.4,1.4c0.1,3.1,0.1,6.1,0,9.2c0,1.1,0.3,1.5,1.4,1.4c0.3,0,0.6,0,0.9,0
		c2.6-3.2,6.3-5.6,10.8-6.7c-0.4-1.8-0.6-3.6-0.9-5.3C162.6,192.1,159,192.1,155.4,192z"/>
	<path class="st0" d="M192,204.1c2.4-0.1,4.8,0,7.1,0c2.5,0,4.9,0,7.4,0c1,0,1.5-0.2,1.5-1.4c-0.1-3.1-0.1-6.1,0-9.2
		c0-1-0.2-1.5-1.4-1.5c-4.9,0.1-9.8,0.1-14.7,0c-1,0-1.5,0.2-1.5,1.4c0.1,3.1,0.1,6.1,0,9.2C190.3,203.9,190.9,204.1,192,204.1z"/>
	<path class="st0" d="M210.3,204.1c4.9-0.1,9.8-0.1,14.7,0c1.1,0,1.4-0.3,1.4-1.4c-0.1-3.1-0.1-6.1,0-9.2c0-1.1-0.3-1.5-1.4-1.4
		c-2.5,0.1-4.9,0-7.4,0c-2.5,0-4.9,0.1-7.4,0c-1.1,0-1.4,0.3-1.4,1.4c0.1,3.1,0.1,6.1,0,9.2C208.8,203.8,209.2,204.1,210.3,204.1z"
		/>
	<path class="st0" d="M254.1,192c-2.5,0-4.9,0.1-7.4,0c-1.1,0-1.4,0.3-1.4,1.4c0.1,3.1,0.1,6.1,0,9.2c0,1.1,0.3,1.4,1.4,1.4
		c0.7,0,1.4,0,2.1,0l13.7-11.8c-0.2-0.2-0.6-0.2-1.1-0.2C259,192.1,256.5,192,254.1,192z"/>
	<polygon class="st0" points="281.2,204 281.2,204 281.2,204 281.2,204 281.2,204 	"/>
	<path class="st0" d="M265.4,204.1c5.3-0.1,10.6-0.1,15.9-0.1v0v-0.1c0-0.5,0-1,0-1.6c0-0.8,0-1.6,0-2.4c0-1.2,0-2.4,0-3.6
		c0-0.9,0-1.8,0-2.7c0-1.1-0.1-1.7-1.4-1.6c-1,0-2,0-3.1,0l-13,11.2C263.9,203.9,264.4,204.1,265.4,204.1z"/>
	<path class="st0" d="M60.4,204.5c-0.6,0-1.2,0-1.8,0l3.2,2.6c0-0.4,0-0.8,0-1.2C61.8,204.8,61.5,204.5,60.4,204.5z"/>
	<path class="st0" d="M78.4,216.5c1.1,0,1.4-0.3,1.4-1.4c-0.1-3.1-0.1-6.1,0-9.2c0-1.1-0.3-1.4-1.4-1.4c-4.9,0.1-9.8,0.1-14.7,0
		c-1.1,0-1.4,0.3-1.4,1.4c0,0.5,0,1.1,0,1.6l11,9C74.9,216.5,76.6,216.5,78.4,216.5z"/>
	<path class="st0" d="M96.8,204.5c-2.5,0.1-4.9,0-7.4,0s-4.9,0.1-7.4,0c-1.1,0-1.4,0.4-1.4,1.4c0.1,3.1,0.1,6.1,0,9.2
		c0,1.1,0.4,1.4,1.4,1.4c4.9-0.1,9.8-0.1,14.7,0c1.1,0,1.4-0.4,1.4-1.4c-0.1-3.1-0.1-6.1,0-9.2C98.3,204.7,97.9,204.4,96.8,204.5z"
		/>
	<path class="st0" d="M115.3,204.5c-4.9,0.1-9.8,0.1-14.7,0c-1.1,0-1.4,0.3-1.4,1.4c0.1,3.1,0.1,6.1,0,9.2c0,1.1,0.3,1.4,1.4,1.4
		c2.5-0.1,4.9,0,7.4,0c2.5,0,4.9-0.1,7.4,0c1.1,0,1.4-0.3,1.4-1.4c-0.1-3.1-0.1-6.1,0-9.2C116.7,204.8,116.4,204.5,115.3,204.5z"/>
	<path class="st0" d="M151.5,204.5c-4.8,0.1-9.7,0.1-14.5,0c-1.3,0-1.5,0.4-1.5,1.6c0.1,3,0.1,6,0,9c0,1.3,0.4,1.5,1.6,1.5
		c2.4-0.1,4.8,0,7.1,0s4.8-0.1,7.1,0c0.3,0,0.5,0,0.8,0c0-0.3,0-0.7,0-1c0-1.9,0.3-3.8,0.9-5.6c0-1.3,0-2.6,0.1-3.9
		C153.2,204.7,152.7,204.4,151.5,204.5z"/>
	<path class="st0" d="M154,205.9c0,0.6,0,1.1,0,1.7c0.5-1.1,1.2-2.1,2-3.1c-0.2,0-0.4,0-0.6,0C154.2,204.4,153.9,204.9,154,205.9z"
		/>
	<path class="st0" d="M191.7,216.5c2.5-0.1,4.9,0,7.4,0c2.5,0,5.1,0,7.6,0c1,0,1.3-0.3,1.3-1.3c-0.1-3.1-0.1-6.3,0-9.4
		c0-1-0.3-1.3-1.3-1.3c-5,0-10,0-15,0c-1,0-1.3,0.3-1.3,1.3c0.1,3.1,0.1,6.3,0,9.4C190.4,216.2,190.7,216.5,191.7,216.5z"/>
	<path class="st0" d="M225,204.5c-2.5,0.1-4.9,0-7.4,0c-2.5,0-4.9,0.1-7.4,0c-1.1,0-1.4,0.3-1.4,1.4c0.1,3.1,0.1,6.1,0,9.2
		c0,1.1,0.3,1.4,1.4,1.4c4.9-0.1,9.8-0.1,14.7,0c1.1,0,1.4-0.3,1.4-1.4c-0.1-3.1-0.1-6.1,0-9.2C226.4,204.8,226.1,204.4,225,204.5z"
		/>
	<path class="st0" d="M262.7,216.4h0.1v0c0-3.4,0-6.9,0.1-10.3c0-0.8,0-1.4-0.7-1.6l-14,12c4.6-0.1,9.2-0.1,13.7-0.1
		C262.2,216.4,262.4,216.4,262.7,216.4z"/>
	<polygon class="st0" points="262.8,216.4 262.8,216.4 262.8,216.5 	"/>
	<path class="st0" d="M245.3,205.9c0,0.4,0,0.8,0,1.2l3-2.6c-0.5,0-1.1,0-1.6,0C245.6,204.5,245.2,204.8,245.3,205.9z"/>
	<path class="st0" d="M78.3,216.9c-1.5,0-3,0-4.5,0l6,4.9c0-1.1,0-2.3,0-3.4C79.8,217.3,79.6,216.9,78.3,216.9z"/>
	<path class="st0" d="M96.7,229c1.2,0,1.6-0.2,1.6-1.5c-0.1-3-0.1-6,0-9c0-1.2-0.2-1.6-1.5-1.6c-4.8,0.1-9.7,0.1-14.5,0
		c-1.2,0-1.6,0.2-1.6,1.5c0,1.4,0.1,2.8,0.1,4.3l7.6,6.3c0.3,0,0.6,0,1,0C91.8,228.9,94.2,228.9,96.7,229z"/>
	<path class="st0" d="M100.5,229c2.5-0.1,4.9,0,7.4,0c2.4,0,4.8,0,7.1,0c1.1,0,1.7-0.1,1.6-1.4c-0.1-3.1-0.1-6.1,0-9.2
		c0-1.1-0.4-1.4-1.4-1.4c-4.9,0-9.8,0.1-14.7,0c-1.1,0-1.4,0.4-1.4,1.4c0.1,3.1,0.1,6.1,0,9.2C99.1,228.7,99.5,229,100.5,229z"/>
	<path class="st0" d="M136.9,216.9c-1.1,0-1.4,0.3-1.4,1.4c0.1,3.1,0.1,6.1,0,9.2c0,1.1,0.3,1.5,1.4,1.4c2.4-0.1,4.8,0,7.1,0
		c2.5,0,5.1-0.1,7.6,0c1.1,0,1.4-0.3,1.4-1.4c0-2.1-0.1-4.1,0-6.2c-0.5-1.4-0.8-2.9-0.9-4.4c-0.1,0-0.3,0-0.5,0
		C146.8,217,141.9,217,136.9,216.9z"/>
	<path class="st0" d="M155.3,229c0.9,0,1.7,0,2.6,0c-1.6-1.5-2.9-3.3-3.9-5.3c0,1.3,0,2.7,0,4C153.9,228.7,154.3,229,155.3,229z"/>
	<path class="st0" d="M208,218.2c0-1-0.3-1.3-1.3-1.3c-5,0-10,0-15,0c-1,0-1.3,0.3-1.3,1.3c0.1,3.1,0.1,6.3,0,9.4
		c0,1,0.3,1.3,1.3,1.3c2.5-0.1,4.9,0,7.4,0c2.5,0,4.9,0,7.4,0c1,0,1.6-0.1,1.5-1.3C207.9,224.5,207.9,221.3,208,218.2z"/>
	<path class="st0" d="M224.9,216.9c-4.8,0.1-9.7,0.1-14.5,0c-1.2,0-1.6,0.3-1.6,1.5c0.1,3,0.1,6,0,9c0,1.2,0.3,1.6,1.5,1.6
		c2.4-0.1,4.8,0,7.1,0c0.8,0,1.6,0,2.3,0l6.5-5.6c0-1.6,0-3.2,0.1-4.8C226.5,217.3,226.1,216.9,224.9,216.9z"/>
	<path class="st0" d="M98.2,230.7c0-1-0.3-1.3-1.3-1.3c-2.7,0-5.4,0-8,0l9.3,7.7C98.2,234.9,98.2,232.8,98.2,230.7z"/>
	<path class="st0" d="M116.7,230.8c0-1.1-0.3-1.4-1.4-1.4c-4.9,0.1-9.8,0.1-14.7,0c-1.1,0-1.4,0.3-1.4,1.4c0.1,2.3,0.1,4.7,0,7
		l2,1.6h15.6C116.6,236.5,116.6,233.7,116.7,230.8z"/>
	<path class="st0" d="M153.1,230.8c0-1.1-0.3-1.4-1.4-1.4c-4.9,0.1-9.8,0.1-14.7,0c-1.1,0-1.4,0.3-1.4,1.4c0.1,2.9,0.1,5.8,0,8.6
		h17.6C153,236.5,153,233.7,153.1,230.8z"/>
	<path class="st0" d="M154,230.8c0.1,2.9,0.1,5.8,0,8.6h17.6c0-1.8,0-3.5,0-5.3c-5.1,0.2-9.7-1.7-13.2-4.8c-1,0-2,0-3,0
		C154.3,229.3,153.9,229.7,154,230.8z"/>
	<path class="st0" d="M208,231c0.1-1.4-0.5-1.6-1.7-1.6c-4.8,0.1-9.5,0.1-14.3,0c-1.4,0-1.6,0.5-1.6,1.7c0.1,2.8,0.1,5.6,0,8.4h17.2
		l0.3-0.3C207.9,236.4,207.9,233.7,208,231z"/>
	<path class="st0" d="M226.4,235.2l-5,4.3h5C226.4,238,226.4,236.6,226.4,235.2z"/>
	<path class="st0" d="M210.2,229.4c-1,0-1.3,0.3-1.3,1.3c0,2.6,0,5.1,0,7.7l10.4-9c-0.5,0-1,0-1.5,0
		C215.2,229.4,212.7,229.4,210.2,229.4z"/>
	<path class="st0" d="M169.8,4.9c0.5,0,0.9,0,1.2-0.1c-3.8-2.4-8.2-4-12.9-4.7c-0.9-0.1-1.5,0.8-1,1.6c0.7,1.1,1.3,2.1,1.9,3.3
		c1.3,0,2.6,0,3.9,0C165.2,4.8,167.5,4.8,169.8,4.9z"/>
	<path class="st0" d="M171.6,15.9c-0.1-3.1-0.1-6.1,0-9.2c0-1.1-0.3-1.5-1.4-1.4c-2.5,0.1-4.9,0-7.4,0c-1.2,0-2.3,0-3.5,0
		c1.7,3.5,2.8,7.2,3.3,10.9c0.1,0.4,0.1,0.7,0.1,1.1c2.5,0,5,0,7.4,0C171.2,17.3,171.6,17,171.6,15.9z"/>
	<path class="st0" d="M249.6,141.3c0,1.3,0.5,1.5,1.6,1.4c2.4-0.1,4.8,0,7.1,0c1.6,0,3.3,0,4.9,0l0.1,0l-13.7-9.4
		C249.7,135.9,249.7,138.6,249.6,141.3z"/>
	<path class="st0" d="M132.6,69.3c0,1.1,0.3,1.4,1,1.4c0,0.2,0,0.4,0,0.6c0,1.3,0.5,1.5,1.6,1.4c2.4-0.1,4.8,0,7.1,0
		c2.5,0,4.9,0,7.4,0c1.1,0,1.5-0.2,1.5-1.4c-0.1-3.1-0.1-6.1,0-9.2c0-0.9-0.2-1.4-1-1.4c0-0.2,0-0.4,0-0.6c0-1.1-0.2-1.5-1.4-1.5
		c-3.6,0-7.2,0-10.7,0c-1.3,0-2.7,0-4,0c-1.1,0-1.5,0.2-1.5,1.4c0,1.4,0.1,2.7,0.1,4.1C132.7,65.9,132.7,67.6,132.6,69.3z"/>
	<path class="st0" d="M230.6,126.3c0,1.3,0.5,1.5,1.6,1.4c2.4-0.1,4.8,0,7.1,0c0.7,0,1.4,0,2.1,0c1.8,0,3.5,0,5.3,0
		c1.1,0,1.5-0.2,1.5-1.4c-0.1-3.1-0.1-6.1,0-9.2c0-1.1-0.2-1.5-1.4-1.5c-4.9,0.1-9.8,0.1-14.7,0c-1.1,0-1.5,0.2-1.5,1.4
		c0,1.1,0,2.2,0,3.2C230.7,122.3,230.7,124.3,230.6,126.3z"/>
	<path class="st0" d="M105.3,40.7c2.4-0.1,4.8,0,7.1,0c2.5,0,4.9,0,7.4,0c1.1,0,1.5-0.2,1.5-1.4c-0.1-3.1-0.1-6.1,0-9.2
		c0-1.1-0.2-1.5-1.4-1.5c-4.9,0.1-9.8,0.1-14.7,0c-1.1,0-1.5,0.2-1.5,1.4c0.1,3.1,0.1,6.1,0,9.2C103.6,40.6,104.2,40.7,105.3,40.7z"
		/>
</g>
<path class="st1" d="M317.9,272.1v-11.7h2.7c1.4,0,2.7,0.4,2.7,1.6v8.3c0,1.4-1.3,1.8-2.7,1.8H317.9z M323.3,288.4h5.2v-11.9
	c0,0,0.1-2.3-1.9-2.9c2.1-0.3,1.9-2.7,1.9-2.7v-9.6c0-2.2-2.9-3.9-6.3-3.9h-9.4v31h5.2v-13.3h2.7c1.4,0,2.7,0.5,2.7,2V288.4z
	 M276.9,285.2v-10.7c0-0.4,0.6-0.8,1.2-0.8h2.2c1.7,0,2.4-0.4,2.7-0.8c0.2-0.3,1.1-1.5,1.7-2.3h-7.8v-9.2c0-0.4,0.5-0.8,1.2-0.8h4.2
	c1.7,0,2.4-0.5,2.7-0.9l1.7-2.3h-13.5c-0.9,0-1.5,0.4-1.6,0.9v30.1h11.5c1.7,0,2.4-0.4,2.8-0.8c0.2-0.3,1.1-1.5,1.7-2.3H276.9z
	 M237,283.6c0,1.2-1.3,1.6-2.7,1.6h-2.8v-10.9h2.8c1.4,0,2.7,0.4,2.7,1.8V283.6z M237,269.6c0,1.4-1.3,1.8-2.7,1.8h-2.8v-10.8h2.8
	c1.4,0,2.7,0.4,2.7,1.6V269.6z M239.2,272.9c3-0.6,3-2.5,3-2.5v-9.1c-0.1-2.2-2.9-3.9-6.4-3.9h-9.4v31h9.4c3.5,0,6.3-1.7,6.4-3.9
	v-9.1C242.2,275.4,242.3,273.5,239.2,272.9z M195.5,288.4v-12.9l6.2-18.1h-3.8c-0.1,0-1.4,0-1.7,1.1l-3.3,11.7l-3.3-11.7
	c-0.2-1-1.5-1.1-1.7-1.1h-3.8l6.2,18.1v11.9c0.1,0.5,0.7,0.9,1.5,0.9H195.5z M159.6,277.3c-1.3,0.4-3.3,0.9-3.7,1
	c-0.6,0.2-1.4,0.7-1.4,1.7v4.2c0,1-1.2,1.7-2.8,1.7c-1.5,0-2.7-0.8-2.7-1.7v-22.6c0-0.9,1.2-1.7,2.7-1.7c1.6,0,2.8,0.8,2.8,1.7v6.9
	l3.7-1.1c0.6-0.2,1.4-0.7,1.4-1.7V261c0-2.1-2.7-3.9-6.2-3.9h-3.2c-3.6,0-6.5,1.8-6.5,3.9v23.7c0,2.2,2.9,3.9,6.5,3.9h3.2
	c3.5-0.1,6.2-1.8,6.2-3.9V277.3z M116.6,288.4v-31h-5.2v17.8l-5.3-16.1c-0.3-0.9-0.8-1.7-3.7-1.7h-2.4v31h5.2v-17.3l5.5,15.3
	c0.2,0.6,0.6,2,3.5,2H116.6z M68.2,283.6c0,1.2-1.3,1.6-2.7,1.6h-3.4v-24.6h3.4c1.4,0,2.7,0.4,2.7,1.6V283.6z M56.9,257.4v31h10
	c3.5,0,6.3-1.7,6.4-3.9v-23.2c-0.1-2.2-2.9-3.9-6.4-3.9H56.9z M27.4,288.4h5.1v-31h-3.2c-1.9,0-2.2,1-2.3,1.1l-5.7,17.8l-6-17.8
	c0,0-0.3-1.1-2.3-1.1H9.9v31H15v-16l3,8.1c0.3,0.7,0.9,2.5,3.9,2.5h1.6l3.9-10.6V288.4z"/>
<polyline id="lijn" class="st0" points="11.9,324.1 331.9,324.1 331.9,322.1 11.9,322.1 "/>
<g class="st1">
	<rect x="7.2" y="248.1" class="st2" width="327.4" height="65"/>
	<path class="st3" d="M31,268.4l-3.2,14.4h-1.3c-2.5,0-3-2.5-3.2-3.4l-2.5-11v21.7h-4.3v-42h2.6c1.7,0,1.9,1.6,1.9,1.6l5,24.1
		l4.7-24.2c0.1-0.2,0.4-1.5,1.9-1.5h2.6v42H31V268.4z"/>
	<path class="st3" d="M63.9,248.1c2.9,0,5.3,2.3,5.3,5.3v31.4c-0.1,2.9-2.4,5.3-5.3,5.3h-8.3v-42H63.9z M65,254.6
		c0-1.6-1.1-2.2-2.3-2.2h-2.8v33.4h2.8c1.2,0,2.3-0.6,2.3-2.2V254.6z"/>
	<path class="st3" d="M103.4,290.1c-2.3,0-2.7-1.9-2.9-2.7l-4.6-20.8v23.5h-4.3v-42h2c2.4,0,2.8,1.1,3.1,2.3l4.4,21.8v-24.2h4.3v42
		H103.4z"/>
	<path class="st3" d="M141.2,285.2c0,2.9-2.3,5.2-5.2,5.3h-2.6c-3,0-5.4-2.4-5.4-5.3V253c0-2.9,2.4-5.3,5.4-5.3h2.6
		c2.9,0.1,5.2,2.5,5.2,5.3v6.4c0,1.4-0.6,2-1.1,2.3l-3.1,1.4v-9.4c0-1.3-1-2.3-2.3-2.3c-1.3,0-2.3,1-2.3,2.3v30.7
		c0,1.3,1,2.3,2.3,2.3c1.3,0,2.3-1,2.3-2.3v-5.6c0-1.4,0.6-2,1.1-2.3c0.4-0.2,2-0.9,3.1-1.4V285.2z"/>
	<path class="st3" d="M168,290.1c-0.7,0-1.2-0.5-1.3-1.3v-16.2l-5.2-24.5h3.2c0.1,0,1.2,0.1,1.4,1.4l2.8,15.9l2.8-15.9
		c0.2-1.4,1.3-1.4,1.4-1.4h3.2l-5.2,24.5v17.5H168z"/>
	<path class="st3" d="M210,272.5v12.3c-0.1,2.9-2.4,5.3-5.3,5.3h-7.8v-42h7.8c2.9,0,5.3,2.3,5.3,5.3v12.3c0,0,0.1,2.6-2.5,3.4
		C210,269.9,210,272.5,210,272.5z M205.7,254.6c0-1.6-1.1-2.2-2.2-2.2h-2.3v14.7h2.3c1.1,0,2.2-0.5,2.2-2.5V254.6z M205.7,273.5
		c0-1.9-1.1-2.4-2.2-2.4h-2.3v14.8h2.3c1.1,0,2.2-0.6,2.2-2.2V273.5z"/>
	<path class="st3" d="M247.9,285.8c-0.5,1.1-1.2,2.8-1.4,3.1c-0.3,0.5-1,1.1-2.3,1.1h-9.6v-40.8c0.1-0.7,0.6-1.2,1.3-1.2h11.2
		l-1.4,3.1c-0.2,0.5-0.9,1.2-2.3,1.2h-3.5c-0.6,0-1,0.4-1,1v12.5h6.5c-0.5,1.1-1.2,2.8-1.4,3.2c-0.3,0.5-0.9,1.1-2.3,1.1h-1.8
		c-0.5,0-1,0.5-1,1v14.6H247.9z"/>
	<path class="st3" d="M277.6,274.7c0-2-1.1-2.7-2.2-2.7h-2.3v18.1h-4.3v-42h7.9c2.9,0,5.3,2.3,5.3,5.3v13c0,0,0.2,3.3-1.6,3.7
		c1.7,0.8,1.6,4,1.6,4v16.1h-4.3V274.7z M275.4,268c1.1,0,2.2-0.5,2.2-2.4v-11.3c0-1.6-1.1-2.2-2.2-2.2h-2.3V268H275.4z"/>
</g>
<g>
	<rect x="0" y="257" class="st4" width="343.9" height="58"/>
	<path d="M28.5,281.4l-3.9,17.3h-1.6c-3,0-3.6-3-3.9-4.1l-3-13.2v26H11V257h3.2c2,0,2.3,1.9,2.3,1.9l6,28.9l5.7-29
		c0.1-0.2,0.4-1.8,2.3-1.8h3.2v50.4h-5.1V281.4z"/>
	<path d="M68.1,257c3.5,0,6.3,2.8,6.4,6.3v37.7c-0.1,3.5-2.9,6.3-6.4,6.3H58V257H68.1z M69.3,264.8c0-1.9-1.3-2.6-2.7-2.6h-3.4v40.1
		h3.4c1.4,0,2.7-0.7,2.7-2.7V264.8z"/>
	<path d="M115.4,307.4c-2.8,0-3.2-2.2-3.5-3.2l-5.5-24.9v28.2h-5.2V257h2.4c2.9,0,3.4,1.4,3.7,2.8l5.3,26.2v-29h5.2v50.4H115.4z"/>
	<path d="M160.7,301.5c0,3.5-2.7,6.3-6.2,6.4h-3.2c-3.6,0-6.5-2.9-6.5-6.4v-38.6c0-3.5,2.9-6.4,6.5-6.4h3.2c3.5,0.1,6.2,3,6.2,6.4
		v7.7c0,1.7-0.7,2.4-1.4,2.7l-3.7,1.7v-11.3c0-1.5-1.2-2.7-2.8-2.7c-1.5,0-2.7,1.2-2.7,2.7v36.8c0,1.6,1.2,2.8,2.7,2.8
		c1.6,0,2.8-1.2,2.8-2.8v-6.8c0-1.7,0.7-2.4,1.4-2.8c0.4-0.2,2.4-1.1,3.7-1.7V301.5z"/>
	<path d="M193,307.4c-0.8,0-1.4-0.6-1.5-1.5v-19.4l-6.2-29.5h3.8c0.1,0,1.4,0.1,1.7,1.7l3.3,19.1l3.3-19.1c0.2-1.7,1.5-1.7,1.7-1.7
		h3.8l-6.2,29.5v21H193z"/>
	<path d="M243.3,286.3v14.8c-0.1,3.5-2.9,6.3-6.4,6.3h-9.4V257h9.4c3.5,0,6.3,2.8,6.4,6.3v14.8c0,0,0.1,3.2-3,4.1
		C243.4,283.1,243.3,286.3,243.3,286.3z M238.1,264.8c0-1.9-1.3-2.6-2.7-2.6h-2.8v17.6h2.8c1.4,0,2.7-0.6,2.7-3V264.8z M238.1,287.5
		c0-2.2-1.3-2.9-2.7-2.9h-2.8v17.7h2.8c1.4,0,2.7-0.7,2.7-2.7V287.5z"/>
	<path d="M288.8,302.3c-0.6,1.3-1.4,3.3-1.7,3.7c-0.4,0.6-1.2,1.4-2.8,1.4h-11.5v-49c0.1-0.8,0.7-1.4,1.6-1.4h13.5l-1.7,3.7
		c-0.3,0.6-1.1,1.4-2.7,1.4h-4.2c-0.7,0-1.2,0.5-1.2,1.2v15h7.8c-0.6,1.3-1.4,3.4-1.7,3.8c-0.4,0.6-1.1,1.4-2.7,1.4h-2.2
		c-0.6,0-1.2,0.6-1.2,1.2v17.5H288.8z"/>
	<path d="M324.4,289c0-2.4-1.3-3.2-2.7-3.2H319v21.7h-5.2V257h9.4c3.5,0,6.3,2.8,6.3,6.3v15.6c0,0,0.2,4-1.9,4.5
		c2,1,1.9,4.8,1.9,4.8v19.3h-5.2V289z M321.8,280.8c1.4,0,2.7-0.6,2.7-2.9v-13.5c0-1.9-1.3-2.6-2.7-2.6H319v19H321.8z"/>
</g>
<g>
</g>
<g>
</g>
<g>
</g>
<g>
</g>
<g>
</g>
<g>
</g>
<g>
</g>
<g>
</g>
<g>
</g>
<g>
</g>
<g>
</g>
<g>
</g>
<g>
</g>
<g>
</g>
<g>
</g>
</svg>
