<svg id="Laag_3" data-name="Laag 3" xmlns="http://www.w3.org/2000/svg" viewBox="0 0 252.6 290.56"><defs><style>.cls-1{fill:#1d1d1b;}</style></defs><title>logo_delta</title><path class="cls-1" d="M247.38,137.87c-4.35,0-8.69,0-13-.06-.86,0-1.14.23-1.12,1.11.05,2.29.08,4.59,0,6.88,0,1.16.26,1.53,1.47,1.5,4.23-.08,8.45,0,12.68,0v-.47l0-8.81Z" transform="translate(-62.57 -25.87)"/><path class="cls-1" d="M146.83,96.8c-.05,1.16.26,1.53,1.47,1.51,4.23-.09,8.45,0,12.68,0l0-9.39c-4,0-8.07,0-12.1-.05-.72,1.07-1.4,2.14-2,3.23C146.89,93.64,146.89,95.22,146.83,96.8Z" transform="translate(-62.57 -25.87)"/><path class="cls-1" d="M219.78,78.69c-.34-.4-.69-.79-1.05-1.18v.06A1.08,1.08,0,0,0,219.78,78.69Z" transform="translate(-62.57 -25.87)"/><path class="cls-1" d="M218.73,80.14q.08,3.61,0,7.23a1.08,1.08,0,0,0,1.11,1.12l5.46,0A32.38,32.38,0,0,0,224,85.23,30,30,0,0,0,220.05,79h-.21A1.09,1.09,0,0,0,218.73,80.14Z" transform="translate(-62.57 -25.87)"/><path class="cls-1" d="M218.73,89.94q.08,3.61,0,7.23a1.08,1.08,0,0,0,1.11,1.12c2.45,0,4.91,0,7.36-.05a36.25,36.25,0,0,0-1.76-9.39c-1.87,0-3.73,0-5.6,0A1.09,1.09,0,0,0,218.73,89.94Z" transform="translate(-62.57 -25.87)"/><path class="cls-1" d="M218.73,99.74c0,.55,0,1.1,0,1.65a28.24,28.24,0,0,1,2.56,2h0a24.39,24.39,0,0,1,4,4.39l0,.07.18.25h1.43c.25-.31.09-.57-.09-.83h0a45.34,45.34,0,0,0,.43-8.55c-2.46,0-4.92,0-7.38,0A1.09,1.09,0,0,0,218.73,99.74Z" transform="translate(-62.57 -25.87)"/><path class="cls-1" d="M226.31,108.46h-.51A.53.53,0,0,0,226.31,108.46Z" transform="translate(-62.57 -25.87)"/><path class="cls-1" d="M230.7,116.73c-.07-.37-.18-.71-.91-.57s-.71.52-.64.9a.49.49,0,0,0,.11.58l0,.2h3Z" transform="translate(-62.57 -25.87)"/><path class="cls-1" d="M232.53,127.08v-8.81h-3.18a33.76,33.76,0,0,1,.05,9.38h3.13Z" transform="translate(-62.57 -25.87)"/><path class="cls-1" d="M232.84,137l0-8.77v-.15h-3.52c-.05.38-.1.76-.16,1.14a53,53,0,0,1-2.08,8.25h5.74Z" transform="translate(-62.57 -25.87)"/><path class="cls-1" d="M277,156a1.1,1.1,0,0,0,1.12,1.13H279v-6.83a.88.88,0,0,0-.42-.73L277,148.46a1.24,1.24,0,0,0,0,.27Q277.06,152.34,277,156Z" transform="translate(-62.57 -25.87)"/><path class="cls-1" d="M277,158.53c0,1.71,0,3.42,0,5.13l1.6-1.37a1.21,1.21,0,0,0,.37-.88v-4h-.88A1.1,1.1,0,0,0,277,158.53Z" transform="translate(-62.57 -25.87)"/><path class="cls-1" d="M278.09,176.69H279v-2.81c-.14-.75-.35-1.56-1.54-1l-.43.37c0,.79,0,1.57,0,2.35A1.1,1.1,0,0,0,278.09,176.69Z" transform="translate(-62.57 -25.87)"/><path class="cls-1" d="M276.77,178.12c.07,2.77.05,5.55.06,8.33h1.56a2.46,2.46,0,0,0,.58-1.68V177h-1.08C277,177,276.75,177.24,276.77,178.12Z" transform="translate(-62.57 -25.87)"/><path class="cls-1" d="M276.05,186.87c-4.22,0-8.45,0-12.68-.06-.86,0-1.14.23-1.12,1.11.07,2.77.05,5.53.07,8.3v0h4.53l9.2-7.79v-1.59Z" transform="translate(-62.57 -25.87)"/><path class="cls-1" d="M247.85,205a1.09,1.09,0,0,0,1.11,1.13c2.11,0,4.22,0,6.33-.05l6.36-5.38v-4h-.79c-3.73,0-7.47,0-11.2-.06l-1.81,1.55Q247.93,201.55,247.85,205Z" transform="translate(-62.57 -25.87)"/><path class="cls-1" d="M247.85,207.53c0,1.6,0,3.19,0,4.79l6.93-5.87c-1.95,0-3.9,0-5.85,0A1.1,1.1,0,0,0,247.85,207.53Z" transform="translate(-62.57 -25.87)"/><path class="cls-1" d="M202.88,108.09c1,0,1.4-.13,1.36-1.24-.09-2.35-.08-4.72,0-7.07a1.4,1.4,0,0,0-.16-.85,20.4,20.4,0,0,1-5.52,7.4q-1.14.87-2.22,1.74h.74C199,108.07,200.94,108,202.88,108.09Z" transform="translate(-62.57 -25.87)"/><path class="cls-1" d="M191.14,137.81c-.86,0-1.13.24-1.11,1.11q.08,3.63,0,7.26c0,.87.24,1.14,1.12,1.11s1.56,0,2.34,0a77.28,77.28,0,0,1,9.3-9.46Q197,137.87,191.14,137.81Z" transform="translate(-62.57 -25.87)"/><path class="cls-1" d="M190,80.12c0,.5,0,1,0,1.51.39-.86.74-1.73,1.08-2.62C190.29,79,190,79.24,190,80.12Z" transform="translate(-62.57 -25.87)"/><path class="cls-1" d="M190,38.32c0,1,.33,1.21,1.24,1.18,1.93-.07,3.87,0,5.8,0h1.56c-.42-.75-.85-1.47-1.32-2.16a26.39,26.39,0,0,0-7-7.07c-.21.19-.27.51-.25,1C190.09,33.6,190.1,36,190,38.32Z" transform="translate(-62.57 -25.87)"/><path class="cls-1" d="M148,157.09q6-.06,12,0c.87,0,1.13-.25,1.11-1.12-.06-2.42-.06-4.83,0-7.25,0-.88-.26-1.14-1.12-1.11-2,.06-4,0-6,0s-4,0-6,0c-.88,0-1.13.25-1.11,1.12q.07,3.61,0,7.25C146.82,156.86,147.1,157.1,148,157.09Z" transform="translate(-62.57 -25.87)"/><path class="cls-1" d="M191.17,39.81c-.83,0-1.17.18-1.14,1.09.06,2.42.05,4.84,0,7.25,0,.84.18,1.16,1.09,1.15,3.63,0,7.27,0,10.9,0a31.83,31.83,0,0,0-3.21-9.45h-1.66C195.16,39.83,193.16,39.87,191.17,39.81Z" transform="translate(-62.57 -25.87)"/><path class="cls-1" d="M159.92,118.21c-1.93.06-3.87,0-5.8,0s-4.11,0-6.16,0c-.88,0-1.14.24-1.12,1.11q.07,3.63,0,7.26c0,.87.24,1.12,1.11,1.11q6-.06,12,0c.87,0,1.14-.24,1.12-1.11q-.09-3.63,0-7.26C161.06,118.45,160.79,118.18,159.92,118.21Z" transform="translate(-62.57 -25.87)"/><path class="cls-1" d="M161.05,129.27c0-1.08-.37-1.28-1.34-1.26-3.87.05-7.74.06-11.61,0-1.07,0-1.29.36-1.26,1.34.06,2.29.07,4.59,0,6.89,0,1.08.36,1.3,1.34,1.26,1.87-.07,3.75,0,5.62,0s3.87-.05,5.8,0c1,0,1.52-.1,1.46-1.33C160.94,133.87,161,131.57,161.05,129.27Z" transform="translate(-62.57 -25.87)"/><path class="cls-1" d="M191.15,49.61c-.86,0-1.14.23-1.12,1.11q.08,3.63,0,7.25c0,.87.23,1.15,1.11,1.13.62,0,1.23,0,1.85,0-.14-.69-.3-1.38-.48-2.06a10.73,10.73,0,0,1,4,.64,11.36,11.36,0,0,1,2.62,1.41c1.12,0,2.24,0,3.36,0a40.74,40.74,0,0,0-.41-9.47Q196.61,49.67,191.15,49.61Z" transform="translate(-62.57 -25.87)"/><path class="cls-1" d="M190,126.6c0,.91.3,1.1,1.14,1.09q6-.06,12,0c.9,0,1.1-.3,1.09-1.14,0-2.41-.06-4.83,0-7.25,0-.91-.31-1.11-1.14-1.09-1.94.05-3.87,0-5.8,0s-4,0-6,0c-.85,0-1.31.08-1.28,1.14C190.1,121.76,190.09,124.18,190,126.6Z" transform="translate(-62.57 -25.87)"/><path class="cls-1" d="M148.18,166.89c1.87-.07,3.75,0,5.62,0s3.87-.05,5.8,0c1,0,1.51-.13,1.45-1.34-.11-2.29-.09-4.59,0-6.89,0-1.09-.39-1.27-1.35-1.25-3.87,0-7.74.06-11.61,0-1.09,0-1.28.38-1.25,1.35.06,2.29.08,4.59,0,6.89C146.79,166.73,147.21,166.93,148.18,166.89Z" transform="translate(-62.57 -25.87)"/><path class="cls-1" d="M146.84,116.88c0,.82.27,1,1,1,4.05,0,8.1,0,12.15,0,.81,0,1-.26,1-1q-.07-3.7,0-7.43c0-.82-.27-1-1-1-2,0-4,0-6,0s-4,0-6,0c-.77,0-1.22,0-1.2,1C146.9,111.93,146.89,114.41,146.84,116.88Z" transform="translate(-62.57 -25.87)"/><path class="cls-1" d="M204.23,129c0-.82-.27-1-1-1-4.05,0-8.1,0-12.15,0-.81,0-1,.26-1,1,0,2.48.05,4.95,0,7.43,0,.82.27,1,1,1,2-.05,4,0,6,0s4,0,6,0h.13l1.06-.92v-.12C204.16,134,204.18,131.5,204.23,129Z" transform="translate(-62.57 -25.87)"/><path class="cls-1" d="M204.23,165.75c0-1.28,0-2.56,0-3.84a64.58,64.58,0,0,0-5.42,5c1.46,0,2.91,0,4.37,0C204,166.9,204.24,166.59,204.23,165.75Z" transform="translate(-62.57 -25.87)"/><path class="cls-1" d="M191.14,117.89q6-.06,12,0c.87,0,1.14-.24,1.12-1.11q-.09-3.63,0-7.25c0-.88-.25-1.15-1.12-1.12-1.93.06-3.87,0-5.8,0h-1.42q-3.15,2.56-5.83,5.12c0,1.08,0,2.15,0,3.23C190,117.65,190.28,117.9,191.14,117.89Z" transform="translate(-62.57 -25.87)"/><path class="cls-1" d="M201.05,60.71a.79.79,0,0,0,1.35-.48c0-.27,0-.54.07-.81h-2.86A14.07,14.07,0,0,1,201.05,60.71Z" transform="translate(-62.57 -25.87)"/><path class="cls-1" d="M190,60.54q.08,3.62,0,7.25c0,.89.27,1.13,1.13,1.1s1.55,0,2.32,0a33.06,33.06,0,0,0-.42-9.45h-1.93C190.25,59.4,190,59.68,190,60.54Z" transform="translate(-62.57 -25.87)"/><path class="cls-1" d="M234.25,157.09c2-.05,4,0,6,0s4.11,0,6.17,0c.8,0,1-.24,1-1,0-2.48,0-4.95,0-7.43,0-.8-.25-1-1-1q-6.07.06-12.15,0c-.8,0-1,.24-1,1q.08,3.71,0,7.43C233.2,156.87,233.46,157.11,234.25,157.09Z" transform="translate(-62.57 -25.87)"/><path class="cls-1" d="M190,148.78q.06,1.65.06,3.3a43.34,43.34,0,0,1,3.14-4.46h-1.95C190.38,147.6,190,147.76,190,148.78Z" transform="translate(-62.57 -25.87)"/><path class="cls-1" d="M190,70.32q.08,3.63,0,7.25c0,.87.23,1.13,1.11,1.13h.1c.18-.48.34-1,.5-1.46a39.06,39.06,0,0,0,1.71-8l-2.3,0C190.29,69.19,190,69.44,190,70.32Z" transform="translate(-62.57 -25.87)"/><path class="cls-1" d="M148,147.29q6-.06,12,0c.89,0,1.13-.27,1.11-1.13,0-2.41-.06-4.83,0-7.25,0-.89-.28-1.13-1.13-1.1-1.93.06-3.87,0-5.8,0s-4.11,0-6.17,0c-.89,0-1.12.27-1.1,1.13,0,.52,0,1,0,1.56.42.92.86,1.84,1.31,2.74-.43-.2-.86-.42-1.29-.65,0,1.2,0,2.4,0,3.6C146.82,147.08,147.12,147.3,148,147.29Z" transform="translate(-62.57 -25.87)"/><path class="cls-1" d="M160,167.21c-4.05,0-8.1,0-12.15,0-.79,0-1.05.22-1,1,0,2.47,0,5,0,7.43,0,.79.22,1.05,1,1,2-.05,4,0,6,0s4.11,0,6.17,0c.79,0,1-.22,1-1q-.07-3.72,0-7.43C161.05,167.45,160.81,167.2,160,167.21Z" transform="translate(-62.57 -25.87)"/><path class="cls-1" d="M197,176.67c2.06,0,4.11,0,6.16,0,.8,0,1-.24,1-1q-.07-3.71,0-7.43c0-.8-.24-1-1-1l-4.77,0a28.38,28.38,0,0,0-6.32,9.45C193.75,176.66,195.4,176.67,197,176.67Z" transform="translate(-62.57 -25.87)"/><path class="cls-1" d="M246.3,167.21c-1.93.06-3.87,0-5.8,0s-4.11,0-6.17,0c-.87,0-1.13.24-1.11,1.11q.08,3.63,0,7.26c0,.87.25,1.12,1.12,1.11q6-.06,12,0c.87,0,1.14-.25,1.12-1.12,0-2.41-.06-4.83,0-7.25C247.44,167.45,247.17,167.18,246.3,167.21Z" transform="translate(-62.57 -25.87)"/><path class="cls-1" d="M148,186.49q6-.06,12,0c.87,0,1.14-.24,1.12-1.12q-.09-3.62,0-7.25c0-.87-.25-1.14-1.12-1.11-1.93.06-3.87,0-5.8,0s-4.11,0-6.16,0c-.88,0-1.14.24-1.12,1.11q.07,3.63,0,7.25C146.82,186.25,147.08,186.5,148,186.49Z" transform="translate(-62.57 -25.87)"/><path class="cls-1" d="M204.23,185.37q-.09-3.62,0-7.25c0-.88-.25-1.14-1.12-1.11-1.93.06-3.87,0-5.8,0-1.78,0-3.55,0-5.33,0a14.47,14.47,0,0,0-.77,4,14.51,14.51,0,0,1,9.52,5.52h2.38C204,186.5,204.25,186.24,204.23,185.37Z" transform="translate(-62.57 -25.87)"/><path class="cls-1" d="M233.22,185.36c0,.86.21,1.14,1.1,1.13q6-.06,12,0c.85,0,1.15-.21,1.13-1.1-.06-2.42,0-4.84,0-7.26,0-.85-.22-1.15-1.11-1.12-2,.06-4,0-6,0s-4,0-6,0c-.85,0-1.15.21-1.13,1.1C233.27,180.53,233.27,182.94,233.22,185.36Z" transform="translate(-62.57 -25.87)"/><path class="cls-1" d="M146.84,195.16c0,.86.21,1.14,1.1,1.13,4,0,8,0,12,0,.85,0,1.15-.21,1.13-1.1-.06-2.42,0-4.84,0-7.26,0-.85-.22-1.15-1.11-1.13-2,.07-4,0-6,0s-4,0-6,0c-.86,0-1.16.21-1.13,1.1Q146.91,191.52,146.84,195.16Z" transform="translate(-62.57 -25.87)"/><path class="cls-1" d="M204.23,195.17q-.09-3.61,0-7.25c0-.87-.25-1.14-1.12-1.11-.71,0-1.42,0-2.13,0a14.69,14.69,0,0,1,2.8,9.37C204.12,196.06,204.24,195.76,204.23,195.17Z" transform="translate(-62.57 -25.87)"/><path class="cls-1" d="M246.09,186.8c-1.87.07-3.75,0-5.62,0s-3.87.05-5.8,0c-1,0-1.53.11-1.47,1.34.12,2.29.09,4.59,0,6.88,0,1.08.36,1.28,1.34,1.27l4.56,0,8.3-7.14c0-.35,0-.7,0-1.05C247.47,187,247.07,186.77,246.09,186.8Z" transform="translate(-62.57 -25.87)"/><path class="cls-1" d="M161,197.75c0-.82-.16-1.16-1.08-1.15-4,.05-8,0-12,0-.82,0-1.18.15-1.15,1.08.06,2.41.07,4.83,0,7.25,0,1,.4,1.17,1.27,1.15,1.93-.06,3.87,0,5.8,0s4,0,6,0c.82,0,1.17-.16,1.15-1.08C161,202.59,161,200.17,161,197.75Z" transform="translate(-62.57 -25.87)"/><path class="cls-1" d="M203.08,206.09c.82,0,1.18-.16,1.15-1.08-.06-2.42,0-4.84,0-7.26,0-.59-.08-.92-.47-1.06v.2a14.63,14.63,0,0,1-4.46,9.17C200.55,206.06,201.82,206.05,203.08,206.09Z" transform="translate(-62.57 -25.87)"/><path class="cls-1" d="M233.22,197.73c0,1.19,0,2.38,0,3.57l5.42-4.67c-1.45,0-2.9,0-4.35,0C233.45,196.6,233.2,196.86,233.22,197.73Z" transform="translate(-62.57 -25.87)"/><path class="cls-1" d="M246.31,206.09c.88,0,1.13-.26,1.11-1.12,0-2.15,0-4.29,0-6.44l-8.8,7.53h1.53C242.2,206.07,244.25,206,246.31,206.09Z" transform="translate(-62.57 -25.87)"/><path class="cls-1" d="M148,108.09c2-.06,4,0,6,0s4,0,6,0c.87,0,1.14-.24,1.12-1.11q-.09-3.63,0-7.25c0-.88-.25-1.13-1.12-1.12q-6,.06-12,0c-.87,0-1.13.24-1.11,1.12q.07,3.61,0,7.25C146.82,107.85,147.08,108.12,148,108.09Z" transform="translate(-62.57 -25.87)"/><path class="cls-1" d="M161,207.42c0-.8-.25-1-1-1q-6.07,0-12.15,0c-.8,0-1,.23-1,1q.06,3.45,0,6.9H161C161,212,161,209.72,161,207.42Z" transform="translate(-62.57 -25.87)"/><path class="cls-1" d="M190,214.33h14.19q-.06-3.42,0-6.82c0-.89-.28-1.11-1.13-1.1l-4.2,0a14.59,14.59,0,0,1-8.06,3.67l-.78.07C190.07,211.55,190.06,212.94,190,214.33Z" transform="translate(-62.57 -25.87)"/><path class="cls-1" d="M245.5,214.33l1.9-1.61c0-1.73,0-3.47,0-5.21,0-.89-.28-1.11-1.13-1.1-2.7,0-5.4,0-8.1,0l-4.94,4.23c0,1.23,0,2.45,0,3.68Z" transform="translate(-62.57 -25.87)"/><path class="cls-1" d="M234.35,166.89c2-.06,4,0,6,0s4,0,6,0c.89,0,1.13-.27,1.11-1.13,0-2.41-.06-4.83,0-7.25,0-.89-.27-1.11-1.13-1.1q-6,.06-12,0c-.88,0-1.12.27-1.1,1.12q.08,3.63,0,7.26C233.2,166.67,233.49,166.91,234.35,166.89Z" transform="translate(-62.57 -25.87)"/><path class="cls-1" d="M188.48,49.3c.91,0,1.27-.18,1.24-1.18-.08-2.36-.07-4.72,0-7.07,0-.92-.18-1.26-1.18-1.24-1.91,0-3.83,0-5.74,0a33.9,33.9,0,0,1-.39,9.43h.27C184.61,49.28,186.54,49.23,188.48,49.3Z" transform="translate(-62.57 -25.87)"/><path class="cls-1" d="M182.8,59.08c1.94,0,3.87,0,5.8,0,.89,0,1.13-.27,1.11-1.13-.05-2.42-.06-4.84,0-7.25,0-.89-.27-1.12-1.13-1.11-2.08,0-4.16,0-6.24,0-.15.75-.3,1.48-.49,2.2-.49,1.89-2.42,4.35-5.18,7.25H177C178.93,59,180.87,59.08,182.8,59.08Z" transform="translate(-62.57 -25.87)"/><path class="cls-1" d="M175.87,67.78c0,.88.26,1.12,1.12,1.11q5.81-.06,11.61,0c.87,0,1.13-.25,1.11-1.12q-.08-3.63,0-7.25c0-.88-.25-1.15-1.12-1.12-1.87.06-3.75,0-5.62,0s-4,0-6,0a1.54,1.54,0,0,0-.74.11l-.27.29a1.72,1.72,0,0,0-.11.72Q176,64.16,175.87,67.78Z" transform="translate(-62.57 -25.87)"/><path class="cls-1" d="M176.9,78.69q5.9,0,11.79,0c.79,0,1-.23,1-1q-.08-3.72,0-7.44c0-.8-.24-1-1-1-1.93.05-3.87,0-5.8,0s-4,0-6,0c-.8,0-1,.24-1,1q.06,3.72,0,7.43C175.86,78.47,176.11,78.7,176.9,78.69Z" transform="translate(-62.57 -25.87)"/><path class="cls-1" d="M217,78.69c.94,0,1.42-.1,1.37-1.23v-.3a30.61,30.61,0,0,0-9-6.31.79.79,0,0,0-1.12.82,39.68,39.68,0,0,1,.36,7l2.75,0C213.28,78.68,215.15,78.63,217,78.69Z" transform="translate(-62.57 -25.87)"/><path class="cls-1" d="M188.59,79c-1.93.06-3.86,0-5.8,0s-3.87,0-5.8,0c-.87,0-1.14.24-1.12,1.12q.09,3.62,0,7.25c0,.87.25,1.12,1.12,1.11,3.07,0,6.13,0,9.2,0a45.13,45.13,0,0,0,3.5-6.09c0-.75,0-1.51,0-2.26S189.47,79,188.59,79Z" transform="translate(-62.57 -25.87)"/><path class="cls-1" d="M217.27,88.49c.87,0,1.13-.24,1.11-1.11q-.07-3.63,0-7.25c0-.88-.24-1.15-1.11-1.12-1.88.06-3.75,0-5.62,0h-3a58.1,58.1,0,0,1-1.17,9.44C210.74,88.46,214,88.46,217.27,88.49Z" transform="translate(-62.57 -25.87)"/><path class="cls-1" d="M146.53,97.11c-.05-1.46-.06-2.92,0-4.38a41.09,41.09,0,0,0-2.62,5.55h1.42C146.2,98.32,146.56,98.11,146.53,97.11Z" transform="translate(-62.57 -25.87)"/><path class="cls-1" d="M175.87,89.93c.07,2.77,0,5.55.07,8.32H177c.73-.71,1.48-1.39,2.25-2A37.84,37.84,0,0,0,186,88.82c-3,0-6,0-9,0C176.12,88.8,175.85,89.06,175.87,89.93Z" transform="translate(-62.57 -25.87)"/><path class="cls-1" d="M205.67,98.29c1.93-.06,3.86,0,5.8,0s3.87,0,5.8,0c.88,0,1.13-.25,1.11-1.12q-.07-3.61,0-7.25c0-.88-.25-1.12-1.12-1.11q-4.92.06-9.86,0c-.25,1.16-.53,2.31-.85,3.44h0a44.49,44.49,0,0,1-2,5.5C204.72,98.18,205,98.31,205.67,98.29Z" transform="translate(-62.57 -25.87)"/><path class="cls-1" d="M145.25,108.09c.85,0,1.31-.09,1.28-1.14-.08-2.41-.07-4.83,0-7.25,0-.91-.31-1.1-1.14-1.09h-1.64a31.33,31.33,0,0,0-1.36,4.8c-.31,1.59-.54,3.13-.73,4.65C142.85,108.06,144.05,108.06,145.25,108.09Z" transform="translate(-62.57 -25.87)"/><path class="cls-1" d="M162.48,98.61c-.86,0-1.15.23-1.13,1.11.06,2.29.09,4.59,0,6.88,0,1.16.26,1.53,1.47,1.5,2.13,0,4.26,0,6.39,0,.25-.42.51-.83.78-1.24a50.64,50.64,0,0,1,5.16-6.68V98.67C170.93,98.66,166.7,98.67,162.48,98.61Z" transform="translate(-62.57 -25.87)"/><path class="cls-1" d="M217.27,98.61q-5.81.06-11.61,0c-.87,0-1.13.24-1.11,1.12q.07,3.61,0,7.25c0,.87.24,1.14,1.11,1.11,1.87-.06,3.75,0,5.62,0s4,0,6,0h.22a63.07,63.07,0,0,0-.43-7.77c.45.26.88.54,1.31.82,0-.47,0-.94,0-1.41C218.4,98.85,218.14,98.6,217.27,98.61Z" transform="translate(-62.57 -25.87)"/><path class="cls-1" d="M146.52,116.78c-.05-2.42-.05-4.83,0-7.25,0-.87-.24-1.15-1.11-1.12-1.27,0-2.54,0-3.81,0a61.15,61.15,0,0,0-.41,9.43l4.21,0C146.26,117.9,146.54,117.66,146.52,116.78Z" transform="translate(-62.57 -25.87)"/><path class="cls-1" d="M161.35,109.53q.09,3.61,0,7.25c0,.87.25,1.14,1.12,1.11.65,0,1.31,0,2,0a57.28,57.28,0,0,1,4.54-9.43l-6.5,0C161.6,108.4,161.34,108.65,161.35,109.53Z" transform="translate(-62.57 -25.87)"/><path class="cls-1" d="M189.71,116.77q0-1.42,0-2.85c-1.36,1.31-2.63,2.63-3.82,3.94.92,0,1.83,0,2.74,0S189.73,117.64,189.71,116.77Z" transform="translate(-62.57 -25.87)"/><path class="cls-1" d="M211.63,108.43c-1.94,0-3.87,0-5.8,0-.85,0-1.33.07-1.29,1.13.08,2.42.06,4.84,0,7.26,0,.9.3,1.1,1.14,1.09,3.66,0,7.33,0,11,0a59.85,59.85,0,0,0,.82-9.48h-.24C215.38,108.47,213.5,108.43,211.63,108.43Z" transform="translate(-62.57 -25.87)"/><path class="cls-1" d="M146.52,126.57c-.05-2.42-.06-4.84,0-7.26,0-.88-.27-1.13-1.13-1.1-1.39,0-2.79,0-4.19,0a54.36,54.36,0,0,0,1,8.17c.08.43.18.85.28,1.28h3C146.3,127.7,146.54,127.42,146.52,126.57Z" transform="translate(-62.57 -25.87)"/><path class="cls-1" d="M161.35,119.32q.09,3.62,0,7.25c0,.57.09.88.41,1a54,54,0,0,1,2.53-9.36c-.61,0-1.21,0-1.82,0C161.62,118.18,161.33,118.44,161.35,119.32Z" transform="translate(-62.57 -25.87)"/><path class="cls-1" d="M188.58,127.69c.86,0,1.15-.21,1.13-1.1-.06-2.42-.05-4.84,0-7.25,0-.86-.22-1.16-1.11-1.13s-2,0-3.08,0a57.72,57.72,0,0,0-6.86,9.44C182,127.66,185.27,127.66,188.58,127.69Z" transform="translate(-62.57 -25.87)"/><path class="cls-1" d="M205.79,118.2c-1.11,0-1.27.41-1.25,1.36.07,2.23.11,4.48,0,6.71-.07,1.29.46,1.47,1.55,1.42,1.75-.07,3.5,0,5.26,0h2.19a30.25,30.25,0,0,0,2.93-8.56c.06-.29.1-.6.15-.89C213,118.26,209.4,118.27,205.79,118.2Z" transform="translate(-62.57 -25.87)"/><path class="cls-1" d="M146.52,136.38q-.08-3.63,0-7.26c0-.87-.24-1.14-1.12-1.11s-1.91,0-2.87,0a59.51,59.51,0,0,0,3,9.45C146.29,137.47,146.54,137.2,146.52,136.38Z" transform="translate(-62.57 -25.87)"/><path class="cls-1" d="M132.68,136.38c0,.87.25,1.12,1.12,1.11q3.22,0,6.45,0a69,69,0,0,1-7-8.39.75.75,0,0,0-.57-.3c0,.11,0,.22,0,.35Q132.77,132.75,132.68,136.38Z" transform="translate(-62.57 -25.87)"/><path class="cls-1" d="M175.2,136.25c0-.38,0-.75,0-1.12-.28.77-.53,1.56-.76,2.34C175,137.4,175.23,137.1,175.2,136.25Z" transform="translate(-62.57 -25.87)"/><path class="cls-1" d="M161.37,130.39c.09-.74.19-1.48.31-2.21-.27.18-.34.53-.32,1.07C161.36,129.63,161.36,130,161.37,130.39Z" transform="translate(-62.57 -25.87)"/><path class="cls-1" d="M177.11,137.49c1.87-.06,3.75,0,5.62,0s3.75,0,5.62,0c.94,0,1.41-.11,1.37-1.23-.09-2.36-.08-4.72,0-7.07,0-1-.34-1.19-1.24-1.18q-5,.06-10,0a49.35,49.35,0,0,0-2.55,5.23c0,1,0,2,0,3.07S176.2,137.52,177.11,137.49Z" transform="translate(-62.57 -25.87)"/><path class="cls-1" d="M205.64,128c-.91,0-1.11.3-1.09,1.14,0,2.39,0,4.77,0,7.16,1.72-1.45,3.56-2.92,5.54-4.43a13,13,0,0,0,3.25-3.85C210.76,128,208.2,128,205.64,128Z" transform="translate(-62.57 -25.87)"/><path class="cls-1" d="M116.33,147.29c.83,0,1.18-.16,1.16-1.08-.06-2.42-.08-4.84,0-7.25v-.2l-12.68,8.53C108.65,147.24,112.49,147.25,116.33,147.29Z" transform="translate(-62.57 -25.87)"/><path class="cls-1" d="M118.16,146.19c0,.89.28,1.11,1.13,1.1q5.8-.06,11.61,0c.89,0,1.12-.27,1.1-1.13q-.08-3.61,0-7.25c0-.89-.27-1.13-1.13-1.1-1.87.06-3.74,0-5.62,0s-4,0-6,0a1.59,1.59,0,0,0-.39,0l-.62.41a1.75,1.75,0,0,0-.09.7Q118.25,142.56,118.16,146.19Z" transform="translate(-62.57 -25.87)"/><path class="cls-1" d="M145.67,137.81c.27.65.55,1.3.84,1.94,0-.27,0-.55,0-.83C146.54,138.14,146.32,137.85,145.67,137.81Z" transform="translate(-62.57 -25.87)"/><path class="cls-1" d="M133.79,137.81c-.88,0-1.13.25-1.11,1.12q.09,3.63,0,7.25c0,.88.26,1.12,1.13,1.11q5.79-.06,11.6,0c.88,0,1.13-.26,1.11-1.12,0-1.27,0-2.53,0-3.8a27.86,27.86,0,0,1-5-3.74l-.84-.8h-.85C137.78,137.83,135.79,137.87,133.79,137.81Z" transform="translate(-62.57 -25.87)"/><path class="cls-1" d="M175.19,146.18q-.08-3.63,0-7.25c0-.78-.19-1.09-.87-1.12a45.2,45.2,0,0,0-1.68,9.47h1.43C174.94,147.3,175.21,147.06,175.19,146.18Z" transform="translate(-62.57 -25.87)"/><path class="cls-1" d="M161.35,146.17c0,.87.24,1.13,1.12,1.12h.41a34.48,34.48,0,0,1-1.51-6.63C161.4,142.5,161.4,144.34,161.35,146.17Z" transform="translate(-62.57 -25.87)"/><path class="cls-1" d="M175.87,146.06c0,.91.18,1.25,1.18,1.24,3.81-.06,7.62-.05,11.43,0,.9,0,1.27-.17,1.24-1.18-.08-2.35-.09-4.71,0-7.07,0-1.13-.43-1.26-1.37-1.23-1.81.06-3.63,0-5.44,0s-3.87,0-5.8,0c-.91,0-1.27.17-1.24,1.18C175.94,141.34,175.93,143.7,175.87,146.06Z" transform="translate(-62.57 -25.87)"/><path class="cls-1" d="M231.63,147.29c.86,0,1.31-.09,1.28-1.14-.08-2.42-.07-4.84,0-7.25,0-.91-.31-1.1-1.14-1.09l-4.79,0c-.59,1.7-1.27,3.45-2,5.22a17.7,17.7,0,0,1-2.76,4.21h3.66C227.76,147.27,229.7,147.24,231.63,147.29Z" transform="translate(-62.57 -25.87)"/><path class="cls-1" d="M262.25,146.16c0,.85.21,1.16,1.11,1.13,1.93-.06,3.86,0,5.8,0s3.87,0,5.8,0h.32l-13-8.9a2,2,0,0,0-.05.53C262.31,141.33,262.31,143.74,262.25,146.16Z" transform="translate(-62.57 -25.87)"/><path class="cls-1" d="M103.33,156c0-2.41-.06-4.83,0-7.25a1.76,1.76,0,0,0,0-.41l-3.46,2.32a1.22,1.22,0,0,0-.35.66l0,5.8h2.7C103.11,157.1,103.35,156.82,103.33,156Z" transform="translate(-62.57 -25.87)"/><path class="cls-1" d="M103.65,156c0,.87.24,1.12,1.11,1.11q5.8-.06,11.61,0c.87,0,1.14-.24,1.12-1.11q-.09-3.63,0-7.26c0-.87-.25-1.14-1.12-1.11-1.87.06-3.75,0-5.62,0s-4,0-6,0a1.74,1.74,0,0,0-.47,0l-.54.36a1.62,1.62,0,0,0-.1.72Q103.73,152.35,103.65,156Z" transform="translate(-62.57 -25.87)"/><path class="cls-1" d="M119.44,157.09c1.87-.05,3.75,0,5.62,0s3.87,0,5.8,0c.84,0,1.17-.18,1.15-1.09-.07-2.42-.06-4.84,0-7.25,0-.84-.18-1.16-1.09-1.14q-5.8.06-11.6,0c-.84,0-1.17.18-1.15,1.09.06,2.41.08,4.84,0,7.25C118.12,157,118.59,157.11,119.44,157.09Z" transform="translate(-62.57 -25.87)"/><path class="cls-1" d="M132.67,155.83c0,1.1.39,1.28,1.35,1.26,3.75-.05,7.5-.06,11.24,0,1.09,0,1.29-.38,1.26-1.35-.06-2.29-.08-4.59,0-6.89,0-1.09-.38-1.29-1.35-1.25-1.81.06-3.62,0-5.44,0s-3.75.05-5.62,0c-1-.05-1.51.12-1.45,1.34C132.78,151.24,132.76,153.54,132.67,155.83Z" transform="translate(-62.57 -25.87)"/><path class="cls-1" d="M161.35,148.84c.06,2.36.07,4.72,0,7.07,0,1,.33,1.21,1.24,1.18,1.87-.06,3.75,0,5.62,0h.14l-.24-.26a29.3,29.3,0,0,1-5.12-9.2h-.45C161.54,147.59,161.33,147.92,161.35,148.84Z" transform="translate(-62.57 -25.87)"/><path class="cls-1" d="M175.2,155.86c-.09-2.36-.08-4.72,0-7.07,0-1-.33-1.19-1.24-1.18h-1.34a56.86,56.86,0,0,0,.22,9.46h1C174.77,157.12,175.25,157,175.2,155.86Z" transform="translate(-62.57 -25.87)"/><path class="cls-1" d="M188.58,147.61q-5.79.06-11.6,0c-.88,0-1.13.27-1.11,1.12q.09,3.63,0,7.26c0,.88.27,1.13,1.13,1.1,1.93-.06,3.87,0,5.8,0,1.57,0,3.13,0,4.7,0,.18-.45.38-.89.59-1.34.47-1,1-2,1.58-3,0-1.35,0-2.69,0-4C189.73,147.82,189.44,147.6,188.58,147.61Z" transform="translate(-62.57 -25.87)"/><path class="cls-1" d="M217.27,157.09c.87,0,1.13-.24,1.11-1.12,0-1.64,0-3.29,0-4.93-2.34,2-5,4-7.79,6h.71C213.28,157.07,215.27,157,217.27,157.09Z" transform="translate(-62.57 -25.87)"/><path class="cls-1" d="M219.06,155.87c0,.93.22,1.26,1.2,1.22,1.87-.07,3.74,0,5.62,0s3.87,0,5.8,0c.92,0,1.26-.21,1.23-1.19-.08-2.36-.07-4.72,0-7.07,0-.93-.22-1.24-1.19-1.23-3.28.05-6.56.05-9.85,0a36.44,36.44,0,0,1-2.78,2.78C219.11,152.22,219.11,154.05,219.06,155.87Z" transform="translate(-62.57 -25.87)"/><path class="cls-1" d="M249.07,157.09c1.81-.07,3.62,0,5.44,0s3.75,0,5.62,0c1,0,1.52-.11,1.46-1.33-.11-2.29-.09-4.6,0-6.89,0-1.08-.36-1.28-1.34-1.26-3.75,0-7.49.06-11.24,0-1.08,0-1.29.36-1.27,1.34.07,2.29.08,4.59,0,6.89C247.69,156.91,248.09,157.13,249.07,157.09Z" transform="translate(-62.57 -25.87)"/><path class="cls-1" d="M263.59,157.09c1.81-.07,3.63,0,5.44,0s3.75,0,5.62,0c1,0,1.51-.12,1.46-1.34-.12-2.29-.1-4.59,0-6.89,0-1.09-.38-1.27-1.35-1.25-3.74,0-7.49.06-11.24,0-1.09,0-1.28.38-1.26,1.35.07,2.29.08,4.59,0,6.88C262.21,156.93,262.63,157.13,263.59,157.09Z" transform="translate(-62.57 -25.87)"/><path class="cls-1" d="M125,137.47c2,0,4,0,6,0,.79,0,1.05-.22,1-1-.05-2.48,0-5,0-7.43v0l-12.62,8.49C121.25,137.44,123.12,137.47,125,137.47Z" transform="translate(-62.57 -25.87)"/><path class="cls-1" d="M103.33,165.78q-.08-3.63,0-7.26c0-.87-.24-1.14-1.12-1.11s-1.78,0-2.68,0l0,9.44h2.63C103.08,166.9,103.35,166.65,103.33,165.78Z" transform="translate(-62.57 -25.87)"/><path class="cls-1" d="M103.65,165.76c0,.85.21,1.14,1.1,1.13,3.87,0,7.74,0,11.6,0,.85,0,1.16-.21,1.14-1.1q-.09-3.63,0-7.25c0-.86-.21-1.16-1.1-1.13-1.93.06-3.87,0-5.8,0s-3.87,0-5.8,0c-.85,0-1.16.2-1.13,1.1Q103.73,162.13,103.65,165.76Z" transform="translate(-62.57 -25.87)"/><path class="cls-1" d="M119.2,166.89c1.93,0,3.86,0,5.8,0s4,0,6,0c.8,0,1-.24,1-1,0-2.48-.05-5,0-7.43,0-.8-.24-1-1-1-3.93,0-7.85,0-11.78,0-.8,0-1,.24-1,1q.06,3.7,0,7.43C118.15,166.67,118.41,166.91,119.2,166.89Z" transform="translate(-62.57 -25.87)"/><path class="cls-1" d="M133.79,166.89q5.81-.06,11.61,0c.86,0,1.14-.23,1.12-1.11q-.08-3.63,0-7.25c0-.87-.23-1.15-1.11-1.12-1.93.06-3.87,0-5.8,0s-3.87,0-5.8,0c-.87,0-1.15.23-1.13,1.11q.09,3.61,0,7.25C132.66,166.63,132.92,166.9,133.79,166.89Z" transform="translate(-62.57 -25.87)"/><path class="cls-1" d="M162.51,157.41c-.83,0-1.18.15-1.16,1.08.07,2.41.05,4.83,0,7.25,0,.82.16,1.16,1.08,1.15,3.87,0,7.73,0,11.6,0,.82,0,1.18-.16,1.16-1.08-.07-2.42-.08-4.84,0-7.25,0-1-.4-1.18-1.27-1.15h-1.06c.16,1.46.36,2.93.61,4.43a30.1,30.1,0,0,1-4.82-4.42h-.35C166.37,157.43,164.44,157.46,162.51,157.41Z" transform="translate(-62.57 -25.87)"/><path class="cls-1" d="M176.9,157.41c-.78,0-1,.22-1,1,0,2.48,0,4.95,0,7.43,0,.79.22,1,1,1,1.93,0,3.86,0,5.8,0h2.43a32.94,32.94,0,0,1,2.23-9.44Q182.14,157.45,176.9,157.41Z" transform="translate(-62.57 -25.87)"/><path class="cls-1" d="M205.66,166.89c1.94-.06,3.87,0,5.81,0s3.87,0,5.8,0c.87,0,1.13-.24,1.11-1.12q-.07-3.61,0-7.25c0-.87-.25-1.12-1.11-1.11q-3.6,0-7.2,0l-.88.64c-1.55,1.12-3.1,2.3-4.61,3.52,0,1.4,0,2.79,0,4.19C204.53,166.65,204.79,166.92,205.66,166.89Z" transform="translate(-62.57 -25.87)"/><path class="cls-1" d="M220.31,166.89c1.93-.06,3.87,0,5.8,0s3.63,0,5.44,0c1,0,1.4-.13,1.36-1.25-.09-2.35-.08-4.71,0-7.07,0-1-.36-1.17-1.26-1.16-3.8,0-7.61.05-11.42,0-1,0-1.19.36-1.17,1.25.06,2.36.07,4.72,0,7.07C219,166.74,219.42,166.92,220.31,166.89Z" transform="translate(-62.57 -25.87)"/><path class="cls-1" d="M260.3,157.41c-1.87.05-3.75,0-5.62,0s-3.87,0-5.8,0c-.83,0-1.17.18-1.15,1.09q.09,3.62,0,7.25c0,.83.18,1.15,1.09,1.14,3.86,0,7.73,0,11.6,0,.83,0,1.17-.18,1.15-1.09-.06-2.42-.08-4.84,0-7.25C261.62,157.5,261.16,157.39,260.3,157.41Z" transform="translate(-62.57 -25.87)"/><path class="cls-1" d="M276.1,158.66c0-1.09-.38-1.27-1.35-1.25-3.74.05-7.49.06-11.24,0-1.09,0-1.28.37-1.26,1.35.07,2.29.08,4.59,0,6.88,0,1.1.38,1.3,1.34,1.26,1.81-.07,3.63,0,5.44,0,1.42,0,2.84,0,4.25,0l2.79-2.4C276,162.53,276,160.59,276.1,158.66Z" transform="translate(-62.57 -25.87)"/><path class="cls-1" d="M103.34,175.44c-.09-2.35-.08-4.71,0-7.07,0-1-.36-1.17-1.26-1.16h-2.5l0,9.44c.79,0,1.58,0,2.36,0C102.93,176.72,103.38,176.55,103.34,175.44Z" transform="translate(-62.57 -25.87)"/><path class="cls-1" d="M117.48,168.36c0-.81-.14-1.17-1.07-1.16-3.87.05-7.74,0-11.61,0-.81,0-1.18.14-1.16,1.07.07,2.42.08,4.84,0,7.25,0,1,.39,1.18,1.26,1.16,1.88-.06,3.75,0,5.63,0s3.86,0,5.8,0c.81,0,1.18-.14,1.16-1.08C117.42,173.2,117.44,170.78,117.48,168.36Z" transform="translate(-62.57 -25.87)"/><path class="cls-1" d="M119.27,176.69c1.93-.06,3.87,0,5.8,0s3.87,0,5.8,0c.86,0,1.16-.21,1.13-1.1q-.08-3.63,0-7.25c0-.86-.21-1.14-1.1-1.13q-5.81.06-11.61,0c-.85,0-1.15.21-1.13,1.1.06,2.42.06,4.83,0,7.25C118.15,176.42,118.38,176.72,119.27,176.69Z" transform="translate(-62.57 -25.87)"/><path class="cls-1" d="M132.68,175.35c0,1,.17,1.37,1.26,1.35,3.74-.07,7.49-.06,11.24,0,1,0,1.39-.16,1.35-1.26-.09-2.29-.11-4.59,0-6.88.06-1.22-.41-1.39-1.45-1.35-1.81.08-3.62,0-5.44,0s-3.74,0-5.62,0c-1,0-1.39.15-1.35,1.25C132.76,170.75,132.74,173.06,132.68,175.35Z" transform="translate(-62.57 -25.87)"/><path class="cls-1" d="M162.63,176.69c1.87-.05,3.75,0,5.62,0s3.87,0,5.8,0c.84,0,1.17-.18,1.15-1.09q-.09-3.63,0-7.25c0-.84-.18-1.16-1.09-1.14q-5.81.06-11.6,0c-.84,0-1.17.18-1.15,1.09.06,2.41.08,4.83,0,7.25C161.31,176.61,161.78,176.71,162.63,176.69Z" transform="translate(-62.57 -25.87)"/><path class="cls-1" d="M175.88,168.23q.06,3.72,0,7.44c0,.8.24,1,1,1,1.93-.05,3.87,0,5.8,0h2.7a45.86,45.86,0,0,1-.31-9.43q-4.09,0-8.19,0C176.1,167.2,175.86,167.44,175.88,168.23Z" transform="translate(-62.57 -25.87)"/><path class="cls-1" d="M204.55,175.57c0,.87.23,1.13,1.11,1.12q5.81-.06,11.6,0c.87,0,1.14-.23,1.12-1.11q-.07-3.63,0-7.25c0-.87-.23-1.15-1.11-1.12-1.93.06-3.87,0-5.8,0s-3.87,0-5.8,0c-.87,0-1.15.23-1.13,1.11Q204.63,171.94,204.55,175.57Z" transform="translate(-62.57 -25.87)"/><path class="cls-1" d="M220.18,176.69c1.94-.06,3.87,0,5.81,0s3.87,0,5.8,0c.88,0,1.13-.25,1.11-1.12q-.08-3.63,0-7.25c0-.88-.26-1.12-1.12-1.11q-5.81.06-11.6,0c-.88,0-1.14.25-1.12,1.12q.09,3.61,0,7.25C219,176.46,219.32,176.72,220.18,176.69Z" transform="translate(-62.57 -25.87)"/><path class="cls-1" d="M260.46,167.21c-1.93.06-3.87,0-5.8,0s-3.87,0-5.81,0c-.87,0-1.13.24-1.11,1.11q.07,3.63,0,7.25c0,.88.24,1.13,1.11,1.12q5.81-.06,11.61,0c.87,0,1.13-.24,1.11-1.12q-.07-3.62,0-7.25C261.59,167.45,261.33,167.18,260.46,167.21Z" transform="translate(-62.57 -25.87)"/><path class="cls-1" d="M263.36,167.21c-.88,0-1.13.25-1.11,1.12q.09,3.61,0,7.25a1.83,1.83,0,0,0,.1.69l10.5-9h-3.68C267.23,167.23,265.3,167.27,263.36,167.21Z" transform="translate(-62.57 -25.87)"/><path class="cls-1" d="M276.09,175.57c0-.52,0-1,0-1.56L273,176.68h2C275.86,176.7,276.11,176.43,276.09,175.57Z" transform="translate(-62.57 -25.87)"/><path class="cls-1" d="M103.33,185.47q-.08-3.72,0-7.44c0-.79-.22-1-1-1H99.63l0,8.49a1.24,1.24,0,0,0,.29.61l.42.35c.64,0,1.28,0,1.92,0C103.09,186.51,103.34,186.27,103.33,185.47Z" transform="translate(-62.57 -25.87)"/><path class="cls-1" d="M116.37,177c-1.87.06-3.75,0-5.62,0s-4,0-6,0c-.87,0-1.13.24-1.11,1.11q.07,3.63,0,7.25c0,.88.24,1.13,1.11,1.12q5.8-.06,11.61,0c.87,0,1.14-.24,1.12-1.12q-.09-3.62,0-7.25C117.51,177.25,117.24,177,116.37,177Z" transform="translate(-62.57 -25.87)"/><path class="cls-1" d="M132,178.26c0-1.09-.38-1.27-1.35-1.26-3.74.05-7.49.07-11.24,0-1.09,0-1.28.37-1.26,1.34.07,2.3.08,4.6,0,6.89,0,1.1.38,1.3,1.34,1.26,1.82-.07,3.63,0,5.44,0s3.75-.05,5.62,0c1,0,1.52-.12,1.46-1.34C131.91,182.86,131.92,180.56,132,178.26Z" transform="translate(-62.57 -25.87)"/><path class="cls-1" d="M145.4,177c-1.93.06-3.87,0-5.8,0s-3.87,0-5.8,0c-.88,0-1.14.25-1.12,1.12q.09,3.62,0,7.25c0,.88.26,1.12,1.12,1.11q5.8-.06,11.61,0c.87,0,1.13-.25,1.11-1.12q-.08-3.63,0-7.25C146.54,177.24,146.27,177,145.4,177Z" transform="translate(-62.57 -25.87)"/><path class="cls-1" d="M175.19,178.23c0-.92-.21-1.27-1.19-1.23-1.87.08-3.74,0-5.62,0s-3.87,0-5.8,0c-.92,0-1.26.2-1.23,1.19q.1,3.53,0,7.07c0,.93.22,1.24,1.2,1.22q5.7-.08,11.42,0c.92,0,1.26-.21,1.23-1.19C175.13,182.94,175.14,180.58,175.19,178.23Z" transform="translate(-62.57 -25.87)"/><path class="cls-1" d="M177,177c-.87,0-1.14.24-1.12,1.11q.09,3.63,0,7.25c0,.87.25,1.15,1.12,1.12h.69a15.88,15.88,0,0,1,8.46-5.3c-.28-1.42-.51-2.8-.69-4.16Q181.22,177,177,177Z" transform="translate(-62.57 -25.87)"/><path class="cls-1" d="M205.8,186.49c1.88-.06,3.75,0,5.62,0s3.87,0,5.81,0c.81,0,1.18-.14,1.16-1.08-.07-2.41,0-4.83,0-7.25,0-.81-.14-1.17-1.07-1.16-3.87.05-7.74,0-11.61,0-.81,0-1.18.14-1.16,1.07.07,2.42.08,4.84,0,7.25C204.51,186.36,204.92,186.51,205.8,186.49Z" transform="translate(-62.57 -25.87)"/><path class="cls-1" d="M220.18,186.49q5.81-.06,11.6,0c.87,0,1.14-.24,1.12-1.12q-.08-3.62,0-7.25c0-.87-.24-1.14-1.12-1.11-1.93.06-3.86,0-5.8,0s-3.87,0-5.8,0c-.87,0-1.14.24-1.12,1.11q.09,3.63,0,7.25C219,186.25,219.31,186.5,220.18,186.49Z" transform="translate(-62.57 -25.87)"/><path class="cls-1" d="M254.65,177c-1.93,0-3.87,0-5.8,0-.87,0-1.13.24-1.11,1.11q.07,3.63,0,7.25c0,.88.25,1.13,1.11,1.12h1.63l10.81-9.3a1.27,1.27,0,0,0-.83-.17C258.52,177.07,256.59,177,254.65,177Z" transform="translate(-62.57 -25.87)"/><polygon class="cls-1" points="213.47 160.57 213.47 160.57 213.47 160.58 213.48 160.57 213.48 160.57 213.47 160.57"/><path class="cls-1" d="M263.55,186.49c4.16-.06,8.33,0,12.49-.05h0v-1.31c0-.62,0-1.24,0-1.86,0-1,0-1.89,0-2.82,0-.72,0-1.44,0-2.16S276,177,275,177l-2.41,0-10.27,8.78C262.4,186.33,262.76,186.51,263.55,186.49Z" transform="translate(-62.57 -25.87)"/><path class="cls-1" d="M102.21,186.81H100.8l2.52,2.08c0-.33,0-.65,0-1C103.35,187,103.07,186.8,102.21,186.81Z" transform="translate(-62.57 -25.87)"/><path class="cls-1" d="M116.37,196.29c.88,0,1.13-.26,1.12-1.12q-.09-3.63,0-7.25c0-.89-.27-1.12-1.13-1.11-3.87,0-7.73,0-11.6,0-.88,0-1.13.25-1.11,1.12,0,.41,0,.82,0,1.24l8.62,7.09C113.65,196.25,115,196.25,116.37,196.29Z" transform="translate(-62.57 -25.87)"/><path class="cls-1" d="M130.87,186.81c-1.93.05-3.87,0-5.8,0s-3.87.05-5.8,0c-.89,0-1.12.28-1.1,1.14q.08,3.62,0,7.25c0,.89.29,1.11,1.14,1.1,3.86,0,7.73,0,11.6,0,.89,0,1.12-.28,1.1-1.13q-.08-3.63,0-7.25C132,187,131.72,186.78,130.87,186.81Z" transform="translate(-62.57 -25.87)"/><path class="cls-1" d="M145.4,186.81q-5.81.06-11.6,0c-.88,0-1.14.25-1.12,1.12q.09,3.62,0,7.25c0,.88.26,1.13,1.12,1.11,1.94-.06,3.87,0,5.81,0s3.87,0,5.8,0c.87,0,1.13-.25,1.11-1.12q-.08-3.63,0-7.25C146.54,187,146.26,186.8,145.4,186.81Z" transform="translate(-62.57 -25.87)"/><path class="cls-1" d="M174,186.8c-3.81,0-7.62.06-11.42,0-1,0-1.21.32-1.19,1.24.06,2.35.07,4.71,0,7.07,0,1,.33,1.21,1.24,1.18,1.87-.07,3.75,0,5.62,0s3.75,0,5.62,0a3.92,3.92,0,0,0,.61,0c0-.26,0-.52,0-.78a13.7,13.7,0,0,1,.73-4.42c0-1,0-2.06,0-3.08S174.87,186.79,174,186.8Z" transform="translate(-62.57 -25.87)"/><path class="cls-1" d="M175.87,188c0,.44,0,.88,0,1.32a14.86,14.86,0,0,1,1.53-2.46H177C176.06,186.79,175.86,187.11,175.87,188Z" transform="translate(-62.57 -25.87)"/><path class="cls-1" d="M205.58,196.29c1.93,0,3.86,0,5.8,0s4,0,6,0c.8,0,1-.24,1-1q-.06-3.72,0-7.43c0-.81-.24-1-1-1q-5.88,0-11.78,0c-.8,0-1,.23-1,1q.06,3.72,0,7.44C204.53,196.07,204.79,196.31,205.58,196.29Z" transform="translate(-62.57 -25.87)"/><path class="cls-1" d="M231.78,186.81c-1.93.05-3.87,0-5.8,0s-3.87.05-5.81,0c-.88,0-1.13.25-1.11,1.12q.09,3.62,0,7.25c0,.88.27,1.12,1.13,1.11,3.86,0,7.73,0,11.6,0,.88,0,1.13-.26,1.11-1.12q-.08-3.63,0-7.26C232.92,187,232.64,186.78,231.78,186.81Z" transform="translate(-62.57 -25.87)"/><path class="cls-1" d="M261.43,196.24h.09v0c0-2.71,0-5.42.05-8.13,0-.63,0-1.06-.53-1.22l-11,9.42c3.61,0,7.21,0,10.82,0Z" transform="translate(-62.57 -25.87)"/><polygon class="cls-1" points="198.96 170.37 198.95 170.37 198.95 170.38 198.96 170.37"/><path class="cls-1" d="M247.74,187.92c0,.3,0,.61,0,.91l2.34-2h-1.24C248,186.8,247.72,187.05,247.74,187.92Z" transform="translate(-62.57 -25.87)"/><path class="cls-1" d="M116.3,196.6c-1.19,0-2.38,0-3.57,0l4.72,3.88c0-.89,0-1.78,0-2.67S117.3,196.58,116.3,196.6Z" transform="translate(-62.57 -25.87)"/><path class="cls-1" d="M130.77,206.09c.91,0,1.27-.18,1.24-1.18-.08-2.36-.06-4.72,0-7.07,0-.92-.18-1.26-1.18-1.24-3.8.06-7.61.05-11.42,0-.91,0-1.27.19-1.24,1.18s0,2.24.06,3.36l6,4.93H125C126.9,206.07,128.84,206,130.77,206.09Z" transform="translate(-62.57 -25.87)"/><path class="cls-1" d="M133.82,206.09c1.93-.06,3.87,0,5.8,0s3.75,0,5.62,0c.85,0,1.32-.07,1.29-1.13-.08-2.41-.07-4.83,0-7.25,0-.9-.3-1.1-1.14-1.09q-5.79.06-11.6,0c-.9,0-1.11.3-1.1,1.14,0,2.42.06,4.84,0,7.25C132.66,205.9,133,206.11,133.82,206.09Z" transform="translate(-62.57 -25.87)"/><path class="cls-1" d="M162.47,196.61c-.87,0-1.13.24-1.12,1.11q.09,3.63,0,7.25c0,.88.25,1.15,1.12,1.12,1.87-.06,3.75,0,5.62,0s4,0,6,0c.87,0,1.13-.24,1.11-1.12,0-1.62,0-3.24,0-4.86a14.43,14.43,0,0,1-.7-3.48,1.62,1.62,0,0,0-.39,0Q168.28,196.67,162.47,196.61Z" transform="translate(-62.57 -25.87)"/><path class="cls-1" d="M176.91,206.08h2a15.11,15.11,0,0,1-3-4.17q0,1.59,0,3.18C175.86,205.89,176.14,206.1,176.91,206.08Z" transform="translate(-62.57 -25.87)"/><path class="cls-1" d="M218.38,197.62c0-.82-.27-1-1-1-3.93,0-7.85,0-11.78,0-.82,0-1,.26-1,1,0,2.48,0,5,0,7.44,0,.81.27,1,1,1,1.93,0,3.86,0,5.8,0s3.87,0,5.8,0c.77,0,1.23,0,1.2-1C218.32,202.57,218.33,200.09,218.38,197.62Z" transform="translate(-62.57 -25.87)"/><path class="cls-1" d="M231.71,196.6c-3.81.06-7.62.05-11.42,0-.93,0-1.26.22-1.23,1.2.07,2.35.06,4.71,0,7.07,0,.92.22,1.26,1.2,1.22,1.87-.08,3.74,0,5.62,0h1.84l5.14-4.42c0-1.27,0-2.54,0-3.81C232.93,196.9,232.68,196.59,231.71,196.6Z" transform="translate(-62.57 -25.87)"/><path class="cls-1" d="M132,207.42c0-.8-.24-1-1-1-2.11,0-4.21,0-6.32,0l7.33,6C132,210.78,132,209.1,132,207.42Z" transform="translate(-62.57 -25.87)"/><path class="cls-1" d="M146.52,207.51c0-.88-.26-1.11-1.12-1.11q-5.81.07-11.61,0c-.87,0-1.13.26-1.11,1.13,0,1.84,0,3.68,0,5.53l1.54,1.27h12.28C146.47,212.06,146.47,209.78,146.52,207.51Z" transform="translate(-62.57 -25.87)"/><path class="cls-1" d="M175.19,207.52c0-.87-.24-1.13-1.11-1.12q-5.81.07-11.61,0c-.87,0-1.13.25-1.12,1.12q.09,3.4,0,6.81h13.83Q175.11,210.93,175.19,207.52Z" transform="translate(-62.57 -25.87)"/><path class="cls-1" d="M175.87,207.52q.07,3.4,0,6.81h13.83c0-1.38,0-2.77,0-4.15a14.64,14.64,0,0,1-10.37-3.76l-2.32,0C176.11,206.39,175.85,206.66,175.87,207.52Z" transform="translate(-62.57 -25.87)"/><path class="cls-1" d="M218.39,207.67c0-1.09-.36-1.28-1.34-1.27-3.75,0-7.49.06-11.24,0-1.08,0-1.29.36-1.27,1.34.07,2.19.08,4.39,0,6.59h13.58l.26-.23C218.29,212,218.31,209.81,218.39,207.67Z" transform="translate(-62.57 -25.87)"/><path class="cls-1" d="M232.87,211,229,214.33h3.94C232.88,213.21,232.87,212.1,232.87,211Z" transform="translate(-62.57 -25.87)"/><path class="cls-1" d="M220.1,206.41c-.79,0-1,.21-1,1,0,2,0,4.05,0,6.08l8.22-7.07h-1.22C224.08,206.42,222.09,206.46,220.1,206.41Z" transform="translate(-62.57 -25.87)"/><path class="cls-1" d="M188.35,29.7a2,2,0,0,0,.92-.12,27.18,27.18,0,0,0-10.16-3.7.8.8,0,0,0-.78,1.23,25.51,25.51,0,0,1,1.5,2.56h3.08C184.72,29.68,186.54,29.63,188.35,29.7Z" transform="translate(-62.57 -25.87)"/><path class="cls-1" d="M189.71,38.39q-.08-3.63,0-7.26c0-.86-.23-1.14-1.11-1.12-1.93.06-3.87,0-5.8,0H180a28.33,28.33,0,0,1,2.63,8.56c0,.29.06.57.1.86,1.94,0,3.89,0,5.84,0C189.45,39.51,189.73,39.26,189.71,38.39Z" transform="translate(-62.57 -25.87)"/><path class="cls-1" d="M251.18,137.06c0,1.06.43,1.16,1.28,1.14,1.88,0,3.75,0,5.62,0,1.29,0,2.58,0,3.87,0H262l-10.8-7.4C251.24,132.87,251.25,135,251.18,137.06Z" transform="translate(-62.57 -25.87)"/><path class="cls-1" d="M159.09,80.39c0,.83.26,1.07.79,1.12V82c0,1.06.42,1.16,1.28,1.14,1.87,0,3.74,0,5.62,0s3.87,0,5.8,0c.84,0,1.17-.18,1.14-1.09-.06-2.42-.05-4.84,0-7.25,0-.74-.14-1.07-.79-1.13v-.45c0-.83-.18-1.15-1.09-1.14-2.82,0-5.64,0-8.46,0h-3.14c-.84,0-1.17.18-1.15,1.09,0,1.08,0,2.16,0,3.24C159.14,77.71,159.13,79.05,159.09,80.39Z" transform="translate(-62.57 -25.87)"/><path class="cls-1" d="M236.23,125.25c0,1.06.42,1.16,1.28,1.14,1.87,0,3.74,0,5.62,0h1.64c1.38,0,2.77,0,4.16,0,.84,0,1.17-.18,1.14-1.09-.06-2.41,0-4.83,0-7.25,0-.84-.19-1.15-1.09-1.14-3.87,0-7.74,0-11.61,0-.83,0-1.16.18-1.14,1.09s0,1.69,0,2.54C236.28,122.11,236.28,123.68,236.23,125.25Z" transform="translate(-62.57 -25.87)"/><path class="cls-1" d="M137.54,57.91c1.88,0,3.75,0,5.62,0s3.87,0,5.81,0c.83,0,1.16-.18,1.14-1.09-.06-2.41-.05-4.83,0-7.25,0-.84-.19-1.15-1.1-1.14-3.86,0-7.73,0-11.6,0-.83,0-1.17.18-1.14,1.09.06,2.42.07,4.84,0,7.25C136.23,57.83,136.69,57.93,137.54,57.91Z" transform="translate(-62.57 -25.87)"/><polyline id="lijn" class="cls-1" points="0.72 255.13 252.6 255.13 252.6 253.56 0.72 253.56"/><path d="M76.34,247.37,73.28,261H72c-2.39,0-2.84-2.38-3.06-3.23l-2.39-10.37v20.46h-4V228.16h2.49a1.79,1.79,0,0,1,1.82,1.47l4.7,22.79,4.48-22.84a1.8,1.8,0,0,1,1.81-1.42h2.5v39.67h-4Z" transform="translate(-62.57 -25.87)"/><path d="M107.46,228.16a5,5,0,0,1,5,5v29.69a5,5,0,0,1-5,5H99.58V228.16Zm1,6.12a1.93,1.93,0,0,0-2.16-2h-2.66v31.57h2.66a2,2,0,0,0,2.16-2.1Z" transform="translate(-62.57 -25.87)"/><path d="M144.69,267.83a2.66,2.66,0,0,1-2.72-2.55l-4.37-19.61v22.16h-4.08V228.16h1.88c2.26,0,2.66,1.08,2.89,2.21L142.48,251V228.16h4.08v39.67Z" transform="translate(-62.57 -25.87)"/><path d="M180.39,263.18a5.07,5.07,0,0,1-4.87,5.05H173a5.07,5.07,0,0,1-5.11-5.05V232.81a5.07,5.07,0,0,1,5.11-5.05h2.49a5,5,0,0,1,4.87,5.05v6.06a2.15,2.15,0,0,1-1.07,2.16l-2.95,1.36v-8.9a2.19,2.19,0,0,0-4.37,0v29a2.19,2.19,0,1,0,4.37,0v-5.33a2.31,2.31,0,0,1,1.08-2.21c.34-.17,1.92-.85,2.94-1.3Z" transform="translate(-62.57 -25.87)"/><path d="M205.78,267.83a1.24,1.24,0,0,1-1.19-1.19v-15.3l-4.87-23.18h3a1.39,1.39,0,0,1,1.31,1.36l2.6,15,2.61-15a1.38,1.38,0,0,1,1.3-1.36h3l-4.88,23.18v16.49Z" transform="translate(-62.57 -25.87)"/><path d="M245.4,251.23v11.61a5,5,0,0,1-5.05,5H233V228.16h7.37a5,5,0,0,1,5.05,5v11.62a3.4,3.4,0,0,1-2.33,3.23A3.39,3.39,0,0,1,245.4,251.23Zm-4.08-16.95a1.92,1.92,0,0,0-2.1-2H237v13.89h2.21c1.07,0,2.1-.51,2.1-2.33Zm0,17.85c0-1.75-1-2.26-2.1-2.26H237v13.94h2.21a1.94,1.94,0,0,0,2.1-2.1Z" transform="translate(-62.57 -25.87)"/><path d="M281.21,263.81c-.45,1-1.13,2.6-1.3,2.94a2.32,2.32,0,0,1-2.21,1.08h-9.07V229.29a1.24,1.24,0,0,1,1.25-1.13h10.59l-1.35,3a2.18,2.18,0,0,1-2.16,1.13h-3.29a.93.93,0,0,0-1,1V245h6.12c-.45,1-1.13,2.67-1.3,3a2.2,2.2,0,0,1-2.15,1.07h-1.71a1,1,0,0,0-1,1v13.77Z" transform="translate(-62.57 -25.87)"/><path d="M309.26,253.32c0-1.92-1-2.55-2.09-2.55H305v17.06h-4.08V228.16h7.43a5,5,0,0,1,5,5v12.24s.17,3.12-1.47,3.51c1.59.8,1.47,3.74,1.47,3.74v15.19h-4.08Zm-2.09-6.4c1.07,0,2.09-.45,2.09-2.27V234a1.91,1.91,0,0,0-2.09-2H305v15Z" transform="translate(-62.57 -25.87)"/><path d="M99,293.1a1.36,1.36,0,0,1-1.37.69h-2a.66.66,0,0,0-.65.61v22H93.08c-.61,0-.72-.36-.72-.54v-22.1H88.72V292a.8.8,0,0,1,.79-.79h10.3Z" transform="translate(-62.57 -25.87)"/><path d="M119.61,313.87c-.29.65-.72,1.66-.83,1.87a1.46,1.46,0,0,1-1.4.69h-5.76V292a.78.78,0,0,1,.79-.72h6.73l-.86,1.87a1.37,1.37,0,0,1-1.37.72h-2.09a.58.58,0,0,0-.61.61v7.49h3.89c-.29.65-.72,1.69-.83,1.91a1.41,1.41,0,0,1-1.37.68h-1.08a.63.63,0,0,0-.61.61v8.75Z" transform="translate(-62.57 -25.87)"/><path d="M140.52,316.43h-2.84l-2.27-17.35-2.26,17.35H130.3l3.82-25.2h1.4c1.08,0,1.26.69,1.37,1.37Z" transform="translate(-62.57 -25.87)"/><path d="M159.75,303.43l-1.95,8.64H157c-1.51,0-1.8-1.51-1.94-2.05l-1.51-6.59v13H151v-25.2h1.59a1.14,1.14,0,0,1,1.15.94l3,14.47,2.85-14.51a1.12,1.12,0,0,1,1.15-.9h1.58v25.2h-2.55Z" transform="translate(-62.57 -25.87)"/><path d="M201.11,291.23a3.21,3.21,0,0,1,3.21,3.17v18.86a3.21,3.21,0,0,1-3.21,3.17h-5v-25.2Zm.65,3.89a1.23,1.23,0,0,0-1.37-1.3H198.7v20.05h1.69a1.24,1.24,0,0,0,1.37-1.33Z" transform="translate(-62.57 -25.87)"/><path d="M226.89,313.87c-.29.65-.72,1.66-.83,1.87a1.46,1.46,0,0,1-1.4.69H218.9V292a.78.78,0,0,1,.79-.72h6.73l-.86,1.87a1.37,1.37,0,0,1-1.37.72H222.1a.58.58,0,0,0-.61.61v7.49h3.89c-.29.65-.72,1.69-.83,1.91a1.41,1.41,0,0,1-1.37.68H222.1a.63.63,0,0,0-.61.61v8.75Z" transform="translate(-62.57 -25.87)"/><path d="M248.63,313.87c-.29.65-.72,1.66-.83,1.87a1.45,1.45,0,0,1-1.4.69h-6.19v-25.2H242a.83.83,0,0,1,.79.79v21.85Z" transform="translate(-62.57 -25.87)"/><path d="M267.42,293.1a1.35,1.35,0,0,1-1.37.69h-2a.66.66,0,0,0-.65.61v22h-1.84c-.61,0-.72-.36-.72-.54v-22.1H257.2V292a.8.8,0,0,1,.79-.79h10.3Z" transform="translate(-62.57 -25.87)"/><path d="M273.11,314.66l8.46-22.49h3.56l8.36,22.46v1.8H273.11ZM290,313.8l-4.93-13.35c-.61-1.7-1.37-3.86-1.8-5.4h-.11c-.36,1.22-1,3.24-1.61,4.93l-5.08,13.82Z" transform="translate(-62.57 -25.87)"/></svg>